<svg xmlns="http://www.w3.org/2000/svg" xmlns:xlink="http://www.w3.org/1999/xlink" width="1920" zoomAndPan="magnify" viewBox="0 0 1440 809.999993" height="1080" preserveAspectRatio="xMidYMid meet" version="1.0"><defs><g/><clipPath id="id1"><path d="M 915.007812 690.960938 L 1440 690.960938 L 1440 810 L 915.007812 810 Z M 915.007812 690.960938 " clip-rule="nonzero"/></clipPath><clipPath id="id2"><path d="M 780.839844 729 L 1049.339844 729 L 1049.339844 810 L 780.839844 810 Z M 780.839844 729 " clip-rule="nonzero"/></clipPath><clipPath id="id3"><path d="M 0 0 L 653.617188 0 L 653.617188 192.707031 L 0 192.707031 Z M 0 0 " clip-rule="nonzero"/></clipPath><clipPath id="id4"><path d="M 81.027344 98.808594 L 113 98.808594 L 113 126.085938 L 81.027344 126.085938 Z M 81.027344 98.808594 " clip-rule="nonzero"/></clipPath><clipPath id="id5"><path d="M 96.773438 71.714844 L 144.90625 71.714844 L 144.90625 126.085938 L 96.773438 126.085938 Z M 96.773438 71.714844 " clip-rule="nonzero"/></clipPath><clipPath id="id6"><path d="M 128.859375 71.714844 L 176.8125 71.714844 L 176.8125 126.085938 L 128.859375 126.085938 Z M 128.859375 71.714844 " clip-rule="nonzero"/></clipPath></defs><rect x="-144" width="1728" fill="#ffffff" y="-80.999999" height="971.999992" fill-opacity="1"/><rect x="-144" width="1728" fill="#1836b2" y="-80.999999" height="971.999992" fill-opacity="1"/><rect x="-144" width="1728" fill="#ffffff" y="-80.999999" height="971.999992" fill-opacity="1"/><rect x="-144" width="1728" fill="#1836b2" y="-80.999999" height="971.999992" fill-opacity="1"/><g fill="#ffffff" fill-opacity="0.4"><g transform="translate(570.845049, 400.293398)"><g><path d="M 9.59375 -40.09375 C 11.4375 -40.09375 13.019531 -39.421875 14.34375 -38.078125 C 15.664062 -36.734375 16.328125 -35.132812 16.328125 -33.28125 C 16.328125 -31.4375 15.664062 -29.851562 14.34375 -28.53125 C 13.019531 -27.207031 11.4375 -26.546875 9.59375 -26.546875 C 7.6875 -26.546875 6.070312 -27.207031 4.75 -28.53125 C 3.4375 -29.851562 2.78125 -31.4375 2.78125 -33.28125 C 2.78125 -35.132812 3.4375 -36.734375 4.75 -38.078125 C 6.070312 -39.421875 7.6875 -40.09375 9.59375 -40.09375 Z M 14.1875 -18.859375 L 15.609375 16.484375 L 3.5625 16.484375 L 5 -18.859375 Z M 14.1875 -18.859375 "/></g></g></g><g fill="#ffffff" fill-opacity="0.4"><g transform="translate(589.942399, 400.293398)"><g><path d="M 28.6875 -56.109375 C 32.382812 -56.109375 35.671875 -55.539062 38.546875 -54.40625 C 41.429688 -53.269531 44.113281 -51.644531 46.59375 -49.53125 L 40.5 -43.1875 C 38.539062 -44.664062 36.703125 -45.75 34.984375 -46.4375 C 33.265625 -47.125 31.320312 -47.46875 29.15625 -47.46875 C 24.988281 -47.46875 21.625 -45.816406 19.0625 -42.515625 C 16.5 -39.210938 15.21875 -34.179688 15.21875 -27.421875 C 15.21875 -20.285156 16.207031 -15.171875 18.1875 -12.078125 C 20.164062 -8.992188 23.242188 -7.453125 27.421875 -7.453125 C 30.429688 -7.453125 33.148438 -8.113281 35.578125 -9.4375 L 35.578125 -22.828125 L 27.890625 -22.828125 L 26.703125 -31.296875 L 46.921875 -31.296875 L 46.921875 -4.28125 C 44.066406 -2.539062 40.988281 -1.179688 37.6875 -0.203125 C 34.382812 0.773438 31.039062 1.265625 27.65625 1.265625 C 19.570312 1.265625 13.441406 -1.160156 9.265625 -6.015625 C 5.097656 -10.878906 3.015625 -18.039062 3.015625 -27.5 C 3.015625 -33.46875 4.148438 -38.617188 6.421875 -42.953125 C 8.691406 -47.285156 11.769531 -50.5625 15.65625 -52.78125 C 19.539062 -55 23.882812 -56.109375 28.6875 -56.109375 Z M 28.6875 -56.109375 "/></g></g></g><g fill="#ffffff" fill-opacity="0.4"><g transform="translate(640.736586, 400.293398)"><g><path d="M 27.265625 -43.1875 C 28.523438 -43.1875 29.925781 -42.976562 31.46875 -42.5625 L 29.5625 -31.703125 C 28.082031 -32.066406 26.835938 -32.25 25.828125 -32.25 C 23.347656 -32.25 21.421875 -31.378906 20.046875 -29.640625 C 18.671875 -27.898438 17.585938 -25.257812 16.796875 -21.71875 L 16.796875 0 L 5.546875 0 L 5.546875 -42 L 15.296875 -42 L 16.328125 -33.84375 C 17.328125 -36.800781 18.789062 -39.097656 20.71875 -40.734375 C 22.644531 -42.367188 24.828125 -43.1875 27.265625 -43.1875 Z M 27.265625 -43.1875 "/></g></g></g><g fill="#ffffff" fill-opacity="0.4"><g transform="translate(672.195707, 400.293398)"><g><path d="M 37.640625 -11.65625 C 37.640625 -10.007812 37.875 -8.800781 38.34375 -8.03125 C 38.820312 -7.269531 39.617188 -6.707031 40.734375 -6.34375 L 38.359375 1.109375 C 35.867188 0.898438 33.84375 0.320312 32.28125 -0.625 C 30.726562 -1.582031 29.53125 -3.066406 28.6875 -5.078125 C 25.9375 -0.847656 21.738281 1.265625 16.09375 1.265625 C 11.914062 1.265625 8.597656 0.0664062 6.140625 -2.328125 C 3.679688 -4.734375 2.453125 -7.867188 2.453125 -11.734375 C 2.453125 -16.328125 4.113281 -19.835938 7.4375 -22.265625 C 10.769531 -24.703125 15.554688 -25.921875 21.796875 -25.921875 L 26.625 -25.921875 L 26.625 -27.96875 C 26.625 -30.5625 26.039062 -32.359375 24.875 -33.359375 C 23.71875 -34.367188 21.789062 -34.875 19.09375 -34.875 C 16.132812 -34.875 12.4375 -34.132812 8 -32.65625 L 5.46875 -40.1875 C 10.695312 -42.238281 15.875 -43.265625 21 -43.265625 C 26.707031 -43.265625 30.90625 -42.035156 33.59375 -39.578125 C 36.289062 -37.128906 37.640625 -33.472656 37.640625 -28.609375 Z M 19.171875 -6.8125 C 22.347656 -6.8125 24.832031 -8.367188 26.625 -11.484375 L 26.625 -19.5 L 22.90625 -19.5 C 16.832031 -19.5 13.796875 -17.226562 13.796875 -12.6875 C 13.796875 -10.832031 14.253906 -9.390625 15.171875 -8.359375 C 16.097656 -7.328125 17.429688 -6.8125 19.171875 -6.8125 Z M 19.171875 -6.8125 "/></g></g></g><g fill="#ffffff" fill-opacity="0.4"><g transform="translate(715.541141, 400.293398)"><g><path d="M 23.0625 -43.265625 C 25.863281 -43.265625 28.382812 -42.851562 30.625 -42.03125 C 32.875 -41.21875 35.003906 -39.941406 37.015625 -38.203125 L 32.09375 -31.546875 C 30.71875 -32.597656 29.382812 -33.359375 28.09375 -33.828125 C 26.800781 -34.304688 25.390625 -34.546875 23.859375 -34.546875 C 17.890625 -34.546875 14.90625 -29.953125 14.90625 -20.765625 C 14.90625 -16.117188 15.671875 -12.789062 17.203125 -10.78125 C 18.734375 -8.769531 20.925781 -7.765625 23.78125 -7.765625 C 25.257812 -7.765625 26.601562 -7.988281 27.8125 -8.4375 C 29.03125 -8.882812 30.457031 -9.640625 32.09375 -10.703125 L 37.015625 -3.640625 C 32.992188 -0.367188 28.394531 1.265625 23.21875 1.265625 C 19.09375 1.265625 15.507812 0.367188 12.46875 -1.421875 C 9.4375 -3.222656 7.101562 -5.773438 5.46875 -9.078125 C 3.832031 -12.378906 3.015625 -16.25 3.015625 -20.6875 C 3.015625 -25.125 3.832031 -29.046875 5.46875 -32.453125 C 7.101562 -35.859375 9.4375 -38.507812 12.46875 -40.40625 C 15.507812 -42.3125 19.039062 -43.265625 23.0625 -43.265625 Z M 23.0625 -43.265625 "/></g></g></g><g fill="#ffffff" fill-opacity="0.4"><g transform="translate(753.418863, 400.293398)"><g><path d="M 16.796875 -42 L 16.796875 0 L 5.546875 0 L 5.546875 -42 Z M 11.109375 -63.640625 C 13.109375 -63.640625 14.753906 -63.015625 16.046875 -61.765625 C 17.347656 -60.523438 18 -58.957031 18 -57.0625 C 18 -55.15625 17.347656 -53.582031 16.046875 -52.34375 C 14.753906 -51.101562 13.109375 -50.484375 11.109375 -50.484375 C 9.097656 -50.484375 7.457031 -51.101562 6.1875 -52.34375 C 4.914062 -53.582031 4.28125 -55.15625 4.28125 -57.0625 C 4.28125 -58.957031 4.914062 -60.523438 6.1875 -61.765625 C 7.457031 -63.015625 9.097656 -63.640625 11.109375 -63.640625 Z M 11.109375 -63.640625 "/></g></g></g><g fill="#ffffff" fill-opacity="0.4"><g transform="translate(775.765145, 400.293398)"><g><path d="M 37.640625 -11.65625 C 37.640625 -10.007812 37.875 -8.800781 38.34375 -8.03125 C 38.820312 -7.269531 39.617188 -6.707031 40.734375 -6.34375 L 38.359375 1.109375 C 35.867188 0.898438 33.84375 0.320312 32.28125 -0.625 C 30.726562 -1.582031 29.53125 -3.066406 28.6875 -5.078125 C 25.9375 -0.847656 21.738281 1.265625 16.09375 1.265625 C 11.914062 1.265625 8.597656 0.0664062 6.140625 -2.328125 C 3.679688 -4.734375 2.453125 -7.867188 2.453125 -11.734375 C 2.453125 -16.328125 4.113281 -19.835938 7.4375 -22.265625 C 10.769531 -24.703125 15.554688 -25.921875 21.796875 -25.921875 L 26.625 -25.921875 L 26.625 -27.96875 C 26.625 -30.5625 26.039062 -32.359375 24.875 -33.359375 C 23.71875 -34.367188 21.789062 -34.875 19.09375 -34.875 C 16.132812 -34.875 12.4375 -34.132812 8 -32.65625 L 5.46875 -40.1875 C 10.695312 -42.238281 15.875 -43.265625 21 -43.265625 C 26.707031 -43.265625 30.90625 -42.035156 33.59375 -39.578125 C 36.289062 -37.128906 37.640625 -33.472656 37.640625 -28.609375 Z M 19.171875 -6.8125 C 22.347656 -6.8125 24.832031 -8.367188 26.625 -11.484375 L 26.625 -19.5 L 22.90625 -19.5 C 16.832031 -19.5 13.796875 -17.226562 13.796875 -12.6875 C 13.796875 -10.832031 14.253906 -9.390625 15.171875 -8.359375 C 16.097656 -7.328125 17.429688 -6.8125 19.171875 -6.8125 Z M 19.171875 -6.8125 "/></g></g></g><g fill="#ffffff" fill-opacity="0.4"><g transform="translate(819.110579, 400.293398)"><g><path d="M 19.5 -43.265625 C 25.414062 -43.265625 30.488281 -41.578125 34.71875 -38.203125 L 30.4375 -31.78125 C 26.894531 -34 23.40625 -35.109375 19.96875 -35.109375 C 18.125 -35.109375 16.695312 -34.765625 15.6875 -34.078125 C 14.6875 -33.390625 14.1875 -32.460938 14.1875 -31.296875 C 14.1875 -30.453125 14.410156 -29.738281 14.859375 -29.15625 C 15.304688 -28.582031 16.148438 -28.03125 17.390625 -27.5 C 18.628906 -26.96875 20.492188 -26.332031 22.984375 -25.59375 C 27.421875 -24.382812 30.722656 -22.757812 32.890625 -20.71875 C 35.054688 -18.6875 36.140625 -15.898438 36.140625 -12.359375 C 36.140625 -9.554688 35.332031 -7.125 33.71875 -5.0625 C 32.101562 -3.007812 29.921875 -1.441406 27.171875 -0.359375 C 24.429688 0.722656 21.367188 1.265625 17.984375 1.265625 C 14.453125 1.265625 11.234375 0.722656 8.328125 -0.359375 C 5.421875 -1.441406 2.9375 -2.929688 0.875 -4.828125 L 6.421875 -11.015625 C 9.960938 -8.265625 13.710938 -6.890625 17.671875 -6.890625 C 19.785156 -6.890625 21.460938 -7.296875 22.703125 -8.109375 C 23.941406 -8.929688 24.5625 -10.054688 24.5625 -11.484375 C 24.5625 -12.597656 24.320312 -13.472656 23.84375 -14.109375 C 23.375 -14.742188 22.503906 -15.335938 21.234375 -15.890625 C 19.972656 -16.441406 17.992188 -17.085938 15.296875 -17.828125 C 11.066406 -18.992188 7.9375 -20.644531 5.90625 -22.78125 C 3.875 -24.925781 2.859375 -27.582031 2.859375 -30.75 C 2.859375 -33.125 3.539062 -35.257812 4.90625 -37.15625 C 6.28125 -39.0625 8.222656 -40.554688 10.734375 -41.640625 C 13.242188 -42.722656 16.164062 -43.265625 19.5 -43.265625 Z M 19.5 -43.265625 "/></g></g></g><g fill="#ffffff" fill-opacity="0.4"><g transform="translate(857.067539, 400.293398)"><g><path d="M 15.453125 -54.84375 L 14.109375 -19.734375 L 4.90625 -19.734375 L 3.40625 -54.84375 Z M 9.515625 -12.28125 C 11.410156 -12.28125 13.019531 -11.617188 14.34375 -10.296875 C 15.664062 -8.984375 16.328125 -7.398438 16.328125 -5.546875 C 16.328125 -3.703125 15.664062 -2.101562 14.34375 -0.75 C 13.019531 0.59375 11.410156 1.265625 9.515625 1.265625 C 7.660156 1.265625 6.070312 0.59375 4.75 -0.75 C 3.4375 -2.101562 2.78125 -3.703125 2.78125 -5.546875 C 2.78125 -7.398438 3.4375 -8.984375 4.75 -10.296875 C 6.070312 -11.617188 7.660156 -12.28125 9.515625 -12.28125 Z M 9.515625 -12.28125 "/></g></g></g><g fill="#ffffff" fill-opacity="1"><g transform="translate(567.342638, 396.790987)"><g><path d="M 9.59375 -40.09375 C 11.4375 -40.09375 13.019531 -39.421875 14.34375 -38.078125 C 15.664062 -36.734375 16.328125 -35.132812 16.328125 -33.28125 C 16.328125 -31.4375 15.664062 -29.851562 14.34375 -28.53125 C 13.019531 -27.207031 11.4375 -26.546875 9.59375 -26.546875 C 7.6875 -26.546875 6.070312 -27.207031 4.75 -28.53125 C 3.4375 -29.851562 2.78125 -31.4375 2.78125 -33.28125 C 2.78125 -35.132812 3.4375 -36.734375 4.75 -38.078125 C 6.070312 -39.421875 7.6875 -40.09375 9.59375 -40.09375 Z M 14.1875 -18.859375 L 15.609375 16.484375 L 3.5625 16.484375 L 5 -18.859375 Z M 14.1875 -18.859375 "/></g></g></g><g fill="#ffffff" fill-opacity="1"><g transform="translate(586.439988, 396.790987)"><g><path d="M 28.6875 -56.109375 C 32.382812 -56.109375 35.671875 -55.539062 38.546875 -54.40625 C 41.429688 -53.269531 44.113281 -51.644531 46.59375 -49.53125 L 40.5 -43.1875 C 38.539062 -44.664062 36.703125 -45.75 34.984375 -46.4375 C 33.265625 -47.125 31.320312 -47.46875 29.15625 -47.46875 C 24.988281 -47.46875 21.625 -45.816406 19.0625 -42.515625 C 16.5 -39.210938 15.21875 -34.179688 15.21875 -27.421875 C 15.21875 -20.285156 16.207031 -15.171875 18.1875 -12.078125 C 20.164062 -8.992188 23.242188 -7.453125 27.421875 -7.453125 C 30.429688 -7.453125 33.148438 -8.113281 35.578125 -9.4375 L 35.578125 -22.828125 L 27.890625 -22.828125 L 26.703125 -31.296875 L 46.921875 -31.296875 L 46.921875 -4.28125 C 44.066406 -2.539062 40.988281 -1.179688 37.6875 -0.203125 C 34.382812 0.773438 31.039062 1.265625 27.65625 1.265625 C 19.570312 1.265625 13.441406 -1.160156 9.265625 -6.015625 C 5.097656 -10.878906 3.015625 -18.039062 3.015625 -27.5 C 3.015625 -33.46875 4.148438 -38.617188 6.421875 -42.953125 C 8.691406 -47.285156 11.769531 -50.5625 15.65625 -52.78125 C 19.539062 -55 23.882812 -56.109375 28.6875 -56.109375 Z M 28.6875 -56.109375 "/></g></g></g><g fill="#ffffff" fill-opacity="1"><g transform="translate(637.234175, 396.790987)"><g><path d="M 27.265625 -43.1875 C 28.523438 -43.1875 29.925781 -42.976562 31.46875 -42.5625 L 29.5625 -31.703125 C 28.082031 -32.066406 26.835938 -32.25 25.828125 -32.25 C 23.347656 -32.25 21.421875 -31.378906 20.046875 -29.640625 C 18.671875 -27.898438 17.585938 -25.257812 16.796875 -21.71875 L 16.796875 0 L 5.546875 0 L 5.546875 -42 L 15.296875 -42 L 16.328125 -33.84375 C 17.328125 -36.800781 18.789062 -39.097656 20.71875 -40.734375 C 22.644531 -42.367188 24.828125 -43.1875 27.265625 -43.1875 Z M 27.265625 -43.1875 "/></g></g></g><g fill="#ffffff" fill-opacity="1"><g transform="translate(668.693296, 396.790987)"><g><path d="M 37.640625 -11.65625 C 37.640625 -10.007812 37.875 -8.800781 38.34375 -8.03125 C 38.820312 -7.269531 39.617188 -6.707031 40.734375 -6.34375 L 38.359375 1.109375 C 35.867188 0.898438 33.84375 0.320312 32.28125 -0.625 C 30.726562 -1.582031 29.53125 -3.066406 28.6875 -5.078125 C 25.9375 -0.847656 21.738281 1.265625 16.09375 1.265625 C 11.914062 1.265625 8.597656 0.0664062 6.140625 -2.328125 C 3.679688 -4.734375 2.453125 -7.867188 2.453125 -11.734375 C 2.453125 -16.328125 4.113281 -19.835938 7.4375 -22.265625 C 10.769531 -24.703125 15.554688 -25.921875 21.796875 -25.921875 L 26.625 -25.921875 L 26.625 -27.96875 C 26.625 -30.5625 26.039062 -32.359375 24.875 -33.359375 C 23.71875 -34.367188 21.789062 -34.875 19.09375 -34.875 C 16.132812 -34.875 12.4375 -34.132812 8 -32.65625 L 5.46875 -40.1875 C 10.695312 -42.238281 15.875 -43.265625 21 -43.265625 C 26.707031 -43.265625 30.90625 -42.035156 33.59375 -39.578125 C 36.289062 -37.128906 37.640625 -33.472656 37.640625 -28.609375 Z M 19.171875 -6.8125 C 22.347656 -6.8125 24.832031 -8.367188 26.625 -11.484375 L 26.625 -19.5 L 22.90625 -19.5 C 16.832031 -19.5 13.796875 -17.226562 13.796875 -12.6875 C 13.796875 -10.832031 14.253906 -9.390625 15.171875 -8.359375 C 16.097656 -7.328125 17.429688 -6.8125 19.171875 -6.8125 Z M 19.171875 -6.8125 "/></g></g></g><g fill="#ffffff" fill-opacity="1"><g transform="translate(712.03873, 396.790987)"><g><path d="M 23.0625 -43.265625 C 25.863281 -43.265625 28.382812 -42.851562 30.625 -42.03125 C 32.875 -41.21875 35.003906 -39.941406 37.015625 -38.203125 L 32.09375 -31.546875 C 30.71875 -32.597656 29.382812 -33.359375 28.09375 -33.828125 C 26.800781 -34.304688 25.390625 -34.546875 23.859375 -34.546875 C 17.890625 -34.546875 14.90625 -29.953125 14.90625 -20.765625 C 14.90625 -16.117188 15.671875 -12.789062 17.203125 -10.78125 C 18.734375 -8.769531 20.925781 -7.765625 23.78125 -7.765625 C 25.257812 -7.765625 26.601562 -7.988281 27.8125 -8.4375 C 29.03125 -8.882812 30.457031 -9.640625 32.09375 -10.703125 L 37.015625 -3.640625 C 32.992188 -0.367188 28.394531 1.265625 23.21875 1.265625 C 19.09375 1.265625 15.507812 0.367188 12.46875 -1.421875 C 9.4375 -3.222656 7.101562 -5.773438 5.46875 -9.078125 C 3.832031 -12.378906 3.015625 -16.25 3.015625 -20.6875 C 3.015625 -25.125 3.832031 -29.046875 5.46875 -32.453125 C 7.101562 -35.859375 9.4375 -38.507812 12.46875 -40.40625 C 15.507812 -42.3125 19.039062 -43.265625 23.0625 -43.265625 Z M 23.0625 -43.265625 "/></g></g></g><g fill="#ffffff" fill-opacity="1"><g transform="translate(749.916452, 396.790987)"><g><path d="M 16.796875 -42 L 16.796875 0 L 5.546875 0 L 5.546875 -42 Z M 11.109375 -63.640625 C 13.109375 -63.640625 14.753906 -63.015625 16.046875 -61.765625 C 17.347656 -60.523438 18 -58.957031 18 -57.0625 C 18 -55.15625 17.347656 -53.582031 16.046875 -52.34375 C 14.753906 -51.101562 13.109375 -50.484375 11.109375 -50.484375 C 9.097656 -50.484375 7.457031 -51.101562 6.1875 -52.34375 C 4.914062 -53.582031 4.28125 -55.15625 4.28125 -57.0625 C 4.28125 -58.957031 4.914062 -60.523438 6.1875 -61.765625 C 7.457031 -63.015625 9.097656 -63.640625 11.109375 -63.640625 Z M 11.109375 -63.640625 "/></g></g></g><g fill="#ffffff" fill-opacity="1"><g transform="translate(772.262734, 396.790987)"><g><path d="M 37.640625 -11.65625 C 37.640625 -10.007812 37.875 -8.800781 38.34375 -8.03125 C 38.820312 -7.269531 39.617188 -6.707031 40.734375 -6.34375 L 38.359375 1.109375 C 35.867188 0.898438 33.84375 0.320312 32.28125 -0.625 C 30.726562 -1.582031 29.53125 -3.066406 28.6875 -5.078125 C 25.9375 -0.847656 21.738281 1.265625 16.09375 1.265625 C 11.914062 1.265625 8.597656 0.0664062 6.140625 -2.328125 C 3.679688 -4.734375 2.453125 -7.867188 2.453125 -11.734375 C 2.453125 -16.328125 4.113281 -19.835938 7.4375 -22.265625 C 10.769531 -24.703125 15.554688 -25.921875 21.796875 -25.921875 L 26.625 -25.921875 L 26.625 -27.96875 C 26.625 -30.5625 26.039062 -32.359375 24.875 -33.359375 C 23.71875 -34.367188 21.789062 -34.875 19.09375 -34.875 C 16.132812 -34.875 12.4375 -34.132812 8 -32.65625 L 5.46875 -40.1875 C 10.695312 -42.238281 15.875 -43.265625 21 -43.265625 C 26.707031 -43.265625 30.90625 -42.035156 33.59375 -39.578125 C 36.289062 -37.128906 37.640625 -33.472656 37.640625 -28.609375 Z M 19.171875 -6.8125 C 22.347656 -6.8125 24.832031 -8.367188 26.625 -11.484375 L 26.625 -19.5 L 22.90625 -19.5 C 16.832031 -19.5 13.796875 -17.226562 13.796875 -12.6875 C 13.796875 -10.832031 14.253906 -9.390625 15.171875 -8.359375 C 16.097656 -7.328125 17.429688 -6.8125 19.171875 -6.8125 Z M 19.171875 -6.8125 "/></g></g></g><g fill="#ffffff" fill-opacity="1"><g transform="translate(815.608168, 396.790987)"><g><path d="M 19.5 -43.265625 C 25.414062 -43.265625 30.488281 -41.578125 34.71875 -38.203125 L 30.4375 -31.78125 C 26.894531 -34 23.40625 -35.109375 19.96875 -35.109375 C 18.125 -35.109375 16.695312 -34.765625 15.6875 -34.078125 C 14.6875 -33.390625 14.1875 -32.460938 14.1875 -31.296875 C 14.1875 -30.453125 14.410156 -29.738281 14.859375 -29.15625 C 15.304688 -28.582031 16.148438 -28.03125 17.390625 -27.5 C 18.628906 -26.96875 20.492188 -26.332031 22.984375 -25.59375 C 27.421875 -24.382812 30.722656 -22.757812 32.890625 -20.71875 C 35.054688 -18.6875 36.140625 -15.898438 36.140625 -12.359375 C 36.140625 -9.554688 35.332031 -7.125 33.71875 -5.0625 C 32.101562 -3.007812 29.921875 -1.441406 27.171875 -0.359375 C 24.429688 0.722656 21.367188 1.265625 17.984375 1.265625 C 14.453125 1.265625 11.234375 0.722656 8.328125 -0.359375 C 5.421875 -1.441406 2.9375 -2.929688 0.875 -4.828125 L 6.421875 -11.015625 C 9.960938 -8.265625 13.710938 -6.890625 17.671875 -6.890625 C 19.785156 -6.890625 21.460938 -7.296875 22.703125 -8.109375 C 23.941406 -8.929688 24.5625 -10.054688 24.5625 -11.484375 C 24.5625 -12.597656 24.320312 -13.472656 23.84375 -14.109375 C 23.375 -14.742188 22.503906 -15.335938 21.234375 -15.890625 C 19.972656 -16.441406 17.992188 -17.085938 15.296875 -17.828125 C 11.066406 -18.992188 7.9375 -20.644531 5.90625 -22.78125 C 3.875 -24.925781 2.859375 -27.582031 2.859375 -30.75 C 2.859375 -33.125 3.539062 -35.257812 4.90625 -37.15625 C 6.28125 -39.0625 8.222656 -40.554688 10.734375 -41.640625 C 13.242188 -42.722656 16.164062 -43.265625 19.5 -43.265625 Z M 19.5 -43.265625 "/></g></g></g><g fill="#ffffff" fill-opacity="1"><g transform="translate(853.565128, 396.790987)"><g><path d="M 15.453125 -54.84375 L 14.109375 -19.734375 L 4.90625 -19.734375 L 3.40625 -54.84375 Z M 9.515625 -12.28125 C 11.410156 -12.28125 13.019531 -11.617188 14.34375 -10.296875 C 15.664062 -8.984375 16.328125 -7.398438 16.328125 -5.546875 C 16.328125 -3.703125 15.664062 -2.101562 14.34375 -0.75 C 13.019531 0.59375 11.410156 1.265625 9.515625 1.265625 C 7.660156 1.265625 6.070312 0.59375 4.75 -0.75 C 3.4375 -2.101562 2.78125 -3.703125 2.78125 -5.546875 C 2.78125 -7.398438 3.4375 -8.984375 4.75 -10.296875 C 6.070312 -11.617188 7.660156 -12.28125 9.515625 -12.28125 Z M 9.515625 -12.28125 "/></g></g></g><g fill="#ffffff" fill-opacity="1"><g transform="translate(375.284313, 479.29238)"><g><path d="M 17.734375 0 L 12.59375 0 L 5.484375 -16.765625 C 5.671875 -15.285156 5.804688 -13.945312 5.890625 -12.75 C 5.984375 -11.550781 6.03125 -10.117188 6.03125 -8.453125 L 6.03125 0 L 2.4375 0 L 2.4375 -20.734375 L 7.4375 -20.734375 L 14.671875 -3.9375 C 14.546875 -4.726562 14.421875 -5.78125 14.296875 -7.09375 C 14.179688 -8.40625 14.125 -9.710938 14.125 -11.015625 L 14.125 -20.734375 L 17.734375 -20.734375 Z M 17.734375 0 "/></g></g></g><g fill="#ffffff" fill-opacity="1"><g transform="translate(394.844287, 479.29238)"><g><path d="M 8.796875 -16.3125 C 11.128906 -16.3125 12.953125 -15.566406 14.265625 -14.078125 C 15.578125 -12.585938 16.234375 -10.546875 16.234375 -7.953125 C 16.234375 -6.285156 15.929688 -4.816406 15.328125 -3.546875 C 14.734375 -2.285156 13.875 -1.300781 12.75 -0.59375 C 11.625 0.101562 10.296875 0.453125 8.765625 0.453125 C 6.421875 0.453125 4.585938 -0.289062 3.265625 -1.78125 C 1.953125 -3.269531 1.296875 -5.328125 1.296875 -7.953125 C 1.296875 -9.609375 1.59375 -11.066406 2.1875 -12.328125 C 2.789062 -13.585938 3.65625 -14.566406 4.78125 -15.265625 C 5.914062 -15.960938 7.253906 -16.3125 8.796875 -16.3125 Z M 8.796875 -13.40625 C 6.492188 -13.40625 5.34375 -11.585938 5.34375 -7.953125 C 5.34375 -6.066406 5.625 -4.675781 6.1875 -3.78125 C 6.757812 -2.894531 7.617188 -2.453125 8.765625 -2.453125 C 9.898438 -2.453125 10.753906 -2.898438 11.328125 -3.796875 C 11.898438 -4.703125 12.1875 -6.085938 12.1875 -7.953125 C 12.1875 -9.804688 11.898438 -11.175781 11.328125 -12.0625 C 10.753906 -12.957031 9.910156 -13.40625 8.796875 -13.40625 Z M 8.796875 -13.40625 "/></g></g></g><g fill="#ffffff" fill-opacity="1"><g transform="translate(411.764269, 479.29238)"><g/></g></g><g fill="#ffffff" fill-opacity="1"><g transform="translate(418.664252, 479.29238)"><g><path d="M 15.65625 -22.234375 L 15.65625 0 L 12.265625 0 L 12 -2.015625 C 11.5 -1.253906 10.863281 -0.648438 10.09375 -0.203125 C 9.320312 0.234375 8.445312 0.453125 7.46875 0.453125 C 5.53125 0.453125 4.039062 -0.296875 3 -1.796875 C 1.957031 -3.296875 1.4375 -5.335938 1.4375 -7.921875 C 1.4375 -9.535156 1.695312 -10.976562 2.21875 -12.25 C 2.738281 -13.519531 3.484375 -14.515625 4.453125 -15.234375 C 5.421875 -15.953125 6.546875 -16.3125 7.828125 -16.3125 C 9.347656 -16.3125 10.675781 -15.742188 11.8125 -14.609375 L 11.8125 -22.65625 Z M 8.546875 -2.453125 C 9.222656 -2.453125 9.820312 -2.617188 10.34375 -2.953125 C 10.863281 -3.285156 11.351562 -3.800781 11.8125 -4.5 L 11.8125 -11.765625 C 11.351562 -12.316406 10.890625 -12.734375 10.421875 -13.015625 C 9.953125 -13.296875 9.410156 -13.4375 8.796875 -13.4375 C 7.773438 -13.4375 6.96875 -12.976562 6.375 -12.0625 C 5.78125 -11.15625 5.484375 -9.785156 5.484375 -7.953125 C 5.484375 -5.992188 5.742188 -4.585938 6.265625 -3.734375 C 6.785156 -2.878906 7.546875 -2.453125 8.546875 -2.453125 Z M 8.546875 -2.453125 "/></g></g></g><g fill="#ffffff" fill-opacity="1"><g transform="translate(436.034226, 479.29238)"><g><path d="M 15 0 L 11.671875 0 L 11.453125 -2.21875 C 10.878906 -1.320312 10.195312 -0.648438 9.40625 -0.203125 C 8.613281 0.234375 7.675781 0.453125 6.59375 0.453125 C 5.175781 0.453125 4.082031 0.0195312 3.3125 -0.84375 C 2.539062 -1.71875 2.15625 -2.925781 2.15625 -4.46875 L 2.15625 -15.875 L 6 -15.875 L 6 -4.953125 C 6 -4.046875 6.15625 -3.398438 6.46875 -3.015625 C 6.78125 -2.640625 7.273438 -2.453125 7.953125 -2.453125 C 9.171875 -2.453125 10.238281 -3.203125 11.15625 -4.703125 L 11.15625 -15.875 L 15 -15.875 Z M 15 0 "/></g></g></g><g fill="#ffffff" fill-opacity="1"><g transform="translate(452.744195, 479.29238)"><g><path d="M 15.65625 -22.234375 L 15.65625 0 L 12.265625 0 L 12 -2.015625 C 11.5 -1.253906 10.863281 -0.648438 10.09375 -0.203125 C 9.320312 0.234375 8.445312 0.453125 7.46875 0.453125 C 5.53125 0.453125 4.039062 -0.296875 3 -1.796875 C 1.957031 -3.296875 1.4375 -5.335938 1.4375 -7.921875 C 1.4375 -9.535156 1.695312 -10.976562 2.21875 -12.25 C 2.738281 -13.519531 3.484375 -14.515625 4.453125 -15.234375 C 5.421875 -15.953125 6.546875 -16.3125 7.828125 -16.3125 C 9.347656 -16.3125 10.675781 -15.742188 11.8125 -14.609375 L 11.8125 -22.65625 Z M 8.546875 -2.453125 C 9.222656 -2.453125 9.820312 -2.617188 10.34375 -2.953125 C 10.863281 -3.285156 11.351562 -3.800781 11.8125 -4.5 L 11.8125 -11.765625 C 11.351562 -12.316406 10.890625 -12.734375 10.421875 -13.015625 C 9.953125 -13.296875 9.410156 -13.4375 8.796875 -13.4375 C 7.773438 -13.4375 6.96875 -12.976562 6.375 -12.0625 C 5.78125 -11.15625 5.484375 -9.785156 5.484375 -7.953125 C 5.484375 -5.992188 5.742188 -4.585938 6.265625 -3.734375 C 6.785156 -2.878906 7.546875 -2.453125 8.546875 -2.453125 Z M 8.546875 -2.453125 "/></g></g></g><g fill="#ffffff" fill-opacity="1"><g transform="translate(470.114169, 479.29238)"><g><path d="M 15.328125 -8.3125 C 15.328125 -8.113281 15.296875 -7.59375 15.234375 -6.75 L 5.28125 -6.75 C 5.394531 -5.207031 5.789062 -4.101562 6.46875 -3.4375 C 7.15625 -2.78125 8.0625 -2.453125 9.1875 -2.453125 C 9.882812 -2.453125 10.539062 -2.566406 11.15625 -2.796875 C 11.78125 -3.035156 12.441406 -3.394531 13.140625 -3.875 L 14.734375 -1.6875 C 12.972656 -0.257812 11.007812 0.453125 8.84375 0.453125 C 6.425781 0.453125 4.5625 -0.285156 3.25 -1.765625 C 1.945312 -3.242188 1.296875 -5.265625 1.296875 -7.828125 C 1.296875 -9.453125 1.570312 -10.90625 2.125 -12.1875 C 2.6875 -13.476562 3.5 -14.488281 4.5625 -15.21875 C 5.625 -15.945312 6.882812 -16.3125 8.34375 -16.3125 C 10.5625 -16.3125 12.28125 -15.609375 13.5 -14.203125 C 14.71875 -12.796875 15.328125 -10.832031 15.328125 -8.3125 Z M 11.515625 -9.421875 C 11.515625 -12.203125 10.488281 -13.59375 8.4375 -13.59375 C 7.488281 -13.59375 6.75 -13.242188 6.21875 -12.546875 C 5.695312 -11.859375 5.382812 -10.753906 5.28125 -9.234375 L 11.515625 -9.234375 Z M 11.515625 -9.421875 "/></g></g></g><g fill="#ffffff" fill-opacity="1"><g transform="translate(485.984143, 479.29238)"><g><path d="M 7.3125 -16.3125 C 9.457031 -16.3125 11.335938 -15.6875 12.953125 -14.4375 L 11.453125 -12.1875 C 10.097656 -13.039062 8.769531 -13.46875 7.46875 -13.46875 C 6.707031 -13.46875 6.113281 -13.320312 5.6875 -13.03125 C 5.269531 -12.738281 5.0625 -12.351562 5.0625 -11.875 C 5.0625 -11.519531 5.148438 -11.222656 5.328125 -10.984375 C 5.515625 -10.742188 5.84375 -10.515625 6.3125 -10.296875 C 6.78125 -10.085938 7.476562 -9.851562 8.40625 -9.59375 C 10.125 -9.132812 11.394531 -8.523438 12.21875 -7.765625 C 13.050781 -7.003906 13.46875 -5.945312 13.46875 -4.59375 C 13.46875 -3.007812 12.828125 -1.769531 11.546875 -0.875 C 10.265625 0.0078125 8.675781 0.453125 6.78125 0.453125 C 5.476562 0.453125 4.289062 0.253906 3.21875 -0.140625 C 2.15625 -0.546875 1.234375 -1.097656 0.453125 -1.796875 L 2.375 -3.953125 C 3.75 -2.921875 5.1875 -2.40625 6.6875 -2.40625 C 7.550781 -2.40625 8.238281 -2.570312 8.75 -2.90625 C 9.257812 -3.25 9.515625 -3.71875 9.515625 -4.3125 C 9.515625 -4.78125 9.414062 -5.144531 9.21875 -5.40625 C 9.03125 -5.675781 8.691406 -5.914062 8.203125 -6.125 C 7.710938 -6.34375 6.945312 -6.601562 5.90625 -6.90625 C 4.289062 -7.34375 3.101562 -7.957031 2.34375 -8.75 C 1.582031 -9.539062 1.203125 -10.523438 1.203125 -11.703125 C 1.203125 -12.578125 1.457031 -13.363281 1.96875 -14.0625 C 2.476562 -14.769531 3.195312 -15.320312 4.125 -15.71875 C 5.050781 -16.113281 6.113281 -16.3125 7.3125 -16.3125 Z M 7.3125 -16.3125 "/></g></g></g><g fill="#ffffff" fill-opacity="1"><g transform="translate(499.664123, 479.29238)"><g/></g></g><g fill="#ffffff" fill-opacity="1"><g transform="translate(506.564109, 479.29238)"><g><path d="M 15.328125 -8.3125 C 15.328125 -8.113281 15.296875 -7.59375 15.234375 -6.75 L 5.28125 -6.75 C 5.394531 -5.207031 5.789062 -4.101562 6.46875 -3.4375 C 7.15625 -2.78125 8.0625 -2.453125 9.1875 -2.453125 C 9.882812 -2.453125 10.539062 -2.566406 11.15625 -2.796875 C 11.78125 -3.035156 12.441406 -3.394531 13.140625 -3.875 L 14.734375 -1.6875 C 12.972656 -0.257812 11.007812 0.453125 8.84375 0.453125 C 6.425781 0.453125 4.5625 -0.285156 3.25 -1.765625 C 1.945312 -3.242188 1.296875 -5.265625 1.296875 -7.828125 C 1.296875 -9.453125 1.570312 -10.90625 2.125 -12.1875 C 2.6875 -13.476562 3.5 -14.488281 4.5625 -15.21875 C 5.625 -15.945312 6.882812 -16.3125 8.34375 -16.3125 C 10.5625 -16.3125 12.28125 -15.609375 13.5 -14.203125 C 14.71875 -12.796875 15.328125 -10.832031 15.328125 -8.3125 Z M 11.515625 -9.421875 C 11.515625 -12.203125 10.488281 -13.59375 8.4375 -13.59375 C 7.488281 -13.59375 6.75 -13.242188 6.21875 -12.546875 C 5.695312 -11.859375 5.382812 -10.753906 5.28125 -9.234375 L 11.515625 -9.234375 Z M 11.515625 -9.421875 "/></g></g></g><g fill="#ffffff" fill-opacity="1"><g transform="translate(522.434088, 479.29238)"><g><path d="M 10.765625 -16.3125 C 12.191406 -16.3125 13.296875 -15.882812 14.078125 -15.03125 C 14.867188 -14.1875 15.265625 -13.003906 15.265625 -11.484375 L 15.265625 0 L 11.4375 0 L 11.4375 -10.890625 C 11.4375 -11.828125 11.269531 -12.484375 10.9375 -12.859375 C 10.601562 -13.242188 10.117188 -13.4375 9.484375 -13.4375 C 8.816406 -13.4375 8.21875 -13.226562 7.6875 -12.8125 C 7.164062 -12.40625 6.65625 -11.816406 6.15625 -11.046875 L 6.15625 0 L 2.3125 0 L 2.3125 -15.875 L 5.640625 -15.875 L 5.9375 -13.796875 C 7.238281 -15.472656 8.847656 -16.3125 10.765625 -16.3125 Z M 10.765625 -16.3125 "/></g></g></g><g fill="#ffffff" fill-opacity="1"><g transform="translate(539.264066, 479.29238)"><g/></g></g><g fill="#ffffff" fill-opacity="1"><g transform="translate(546.164052, 479.29238)"><g><path d="M 8.703125 -16.3125 C 9.742188 -16.3125 10.675781 -16.160156 11.5 -15.859375 C 12.332031 -15.566406 13.117188 -15.097656 13.859375 -14.453125 L 12.15625 -12.15625 C 11.613281 -12.550781 11.09375 -12.835938 10.59375 -13.015625 C 10.09375 -13.203125 9.539062 -13.296875 8.9375 -13.296875 C 6.5625 -13.296875 5.375 -11.484375 5.375 -7.859375 C 5.375 -6.015625 5.679688 -4.6875 6.296875 -3.875 C 6.921875 -3.070312 7.800781 -2.671875 8.9375 -2.671875 C 9.5 -2.671875 10.015625 -2.757812 10.484375 -2.9375 C 10.953125 -3.113281 11.507812 -3.40625 12.15625 -3.8125 L 13.859375 -1.375 C 12.359375 -0.15625 10.648438 0.453125 8.734375 0.453125 C 7.210938 0.453125 5.890625 0.117188 4.765625 -0.546875 C 3.648438 -1.222656 2.789062 -2.179688 2.1875 -3.421875 C 1.59375 -4.660156 1.296875 -6.117188 1.296875 -7.796875 C 1.296875 -9.472656 1.59375 -10.957031 2.1875 -12.25 C 2.789062 -13.539062 3.648438 -14.539062 4.765625 -15.25 C 5.890625 -15.957031 7.203125 -16.3125 8.703125 -16.3125 Z M 8.703125 -16.3125 "/></g></g></g><g fill="#ffffff" fill-opacity="1"><g transform="translate(559.904034, 479.29238)"><g><path d="M 8.796875 -16.3125 C 11.128906 -16.3125 12.953125 -15.566406 14.265625 -14.078125 C 15.578125 -12.585938 16.234375 -10.546875 16.234375 -7.953125 C 16.234375 -6.285156 15.929688 -4.816406 15.328125 -3.546875 C 14.734375 -2.285156 13.875 -1.300781 12.75 -0.59375 C 11.625 0.101562 10.296875 0.453125 8.765625 0.453125 C 6.421875 0.453125 4.585938 -0.289062 3.265625 -1.78125 C 1.953125 -3.269531 1.296875 -5.328125 1.296875 -7.953125 C 1.296875 -9.609375 1.59375 -11.066406 2.1875 -12.328125 C 2.789062 -13.585938 3.65625 -14.566406 4.78125 -15.265625 C 5.914062 -15.960938 7.253906 -16.3125 8.796875 -16.3125 Z M 8.796875 -13.40625 C 6.492188 -13.40625 5.34375 -11.585938 5.34375 -7.953125 C 5.34375 -6.066406 5.625 -4.675781 6.1875 -3.78125 C 6.757812 -2.894531 7.617188 -2.453125 8.765625 -2.453125 C 9.898438 -2.453125 10.753906 -2.898438 11.328125 -3.796875 C 11.898438 -4.703125 12.1875 -6.085938 12.1875 -7.953125 C 12.1875 -9.804688 11.898438 -11.175781 11.328125 -12.0625 C 10.753906 -12.957031 9.910156 -13.40625 8.796875 -13.40625 Z M 8.796875 -13.40625 "/></g></g></g><g fill="#ffffff" fill-opacity="1"><g transform="translate(576.824009, 479.29238)"><g><path d="M 10.765625 -16.3125 C 12.191406 -16.3125 13.296875 -15.882812 14.078125 -15.03125 C 14.867188 -14.1875 15.265625 -13.003906 15.265625 -11.484375 L 15.265625 0 L 11.4375 0 L 11.4375 -10.890625 C 11.4375 -11.828125 11.269531 -12.484375 10.9375 -12.859375 C 10.601562 -13.242188 10.117188 -13.4375 9.484375 -13.4375 C 8.816406 -13.4375 8.21875 -13.226562 7.6875 -12.8125 C 7.164062 -12.40625 6.65625 -11.816406 6.15625 -11.046875 L 6.15625 0 L 2.3125 0 L 2.3125 -15.875 L 5.640625 -15.875 L 5.9375 -13.796875 C 7.238281 -15.472656 8.847656 -16.3125 10.765625 -16.3125 Z M 10.765625 -16.3125 "/></g></g></g><g fill="#ffffff" fill-opacity="1"><g transform="translate(593.653987, 479.29238)"><g><path d="M 11.40625 -0.75 C 10.84375 -0.351562 10.210938 -0.0546875 9.515625 0.140625 C 8.828125 0.347656 8.125 0.453125 7.40625 0.453125 C 5.84375 0.429688 4.65625 -0.0078125 3.84375 -0.875 C 3.039062 -1.75 2.640625 -3.035156 2.640625 -4.734375 L 2.640625 -13.109375 L 0.15625 -13.109375 L 0.15625 -15.875 L 2.640625 -15.875 L 2.640625 -19.375 L 6.484375 -19.828125 L 6.484375 -15.875 L 10.171875 -15.875 L 9.78125 -13.109375 L 6.484375 -13.109375 L 6.484375 -4.828125 C 6.484375 -4.046875 6.617188 -3.484375 6.890625 -3.140625 C 7.160156 -2.804688 7.582031 -2.640625 8.15625 -2.640625 C 8.738281 -2.640625 9.367188 -2.828125 10.046875 -3.203125 Z M 11.40625 -0.75 "/></g></g></g><g fill="#ffffff" fill-opacity="1"><g transform="translate(604.303973, 479.29238)"><g><path d="M 14.046875 -4.203125 C 14.046875 -3.578125 14.140625 -3.117188 14.328125 -2.828125 C 14.515625 -2.546875 14.816406 -2.320312 15.234375 -2.15625 L 14.4375 0.390625 C 13.53125 0.304688 12.789062 0.0859375 12.21875 -0.265625 C 11.65625 -0.628906 11.222656 -1.179688 10.921875 -1.921875 C 10.378906 -1.117188 9.703125 -0.519531 8.890625 -0.125 C 8.085938 0.257812 7.1875 0.453125 6.1875 0.453125 C 4.601562 0.453125 3.347656 0.00390625 2.421875 -0.890625 C 1.503906 -1.796875 1.046875 -2.976562 1.046875 -4.4375 C 1.046875 -6.15625 1.671875 -7.46875 2.921875 -8.375 C 4.171875 -9.289062 5.957031 -9.75 8.28125 -9.75 L 10.265625 -9.75 L 10.265625 -10.65625 C 10.265625 -11.675781 10.023438 -12.390625 9.546875 -12.796875 C 9.078125 -13.203125 8.328125 -13.40625 7.296875 -13.40625 C 6.128906 -13.40625 4.726562 -13.125 3.09375 -12.5625 L 2.1875 -15.1875 C 4.164062 -15.9375 6.085938 -16.3125 7.953125 -16.3125 C 12.015625 -16.3125 14.046875 -14.492188 14.046875 -10.859375 Z M 7.203125 -2.34375 C 8.503906 -2.34375 9.523438 -2.992188 10.265625 -4.296875 L 10.265625 -7.5 L 8.671875 -7.5 C 6.191406 -7.5 4.953125 -6.578125 4.953125 -4.734375 C 4.953125 -3.972656 5.140625 -3.382812 5.515625 -2.96875 C 5.898438 -2.550781 6.460938 -2.34375 7.203125 -2.34375 Z M 7.203125 -2.34375 "/></g></g></g><g fill="#ffffff" fill-opacity="1"><g transform="translate(620.083955, 479.29238)"><g><path d="M 8.703125 -16.3125 C 9.742188 -16.3125 10.675781 -16.160156 11.5 -15.859375 C 12.332031 -15.566406 13.117188 -15.097656 13.859375 -14.453125 L 12.15625 -12.15625 C 11.613281 -12.550781 11.09375 -12.835938 10.59375 -13.015625 C 10.09375 -13.203125 9.539062 -13.296875 8.9375 -13.296875 C 6.5625 -13.296875 5.375 -11.484375 5.375 -7.859375 C 5.375 -6.015625 5.679688 -4.6875 6.296875 -3.875 C 6.921875 -3.070312 7.800781 -2.671875 8.9375 -2.671875 C 9.5 -2.671875 10.015625 -2.757812 10.484375 -2.9375 C 10.953125 -3.113281 11.507812 -3.40625 12.15625 -3.8125 L 13.859375 -1.375 C 12.359375 -0.15625 10.648438 0.453125 8.734375 0.453125 C 7.210938 0.453125 5.890625 0.117188 4.765625 -0.546875 C 3.648438 -1.222656 2.789062 -2.179688 2.1875 -3.421875 C 1.59375 -4.660156 1.296875 -6.117188 1.296875 -7.796875 C 1.296875 -9.472656 1.59375 -10.957031 2.1875 -12.25 C 2.789062 -13.539062 3.648438 -14.539062 4.765625 -15.25 C 5.890625 -15.957031 7.203125 -16.3125 8.703125 -16.3125 Z M 8.703125 -16.3125 "/></g></g></g><g fill="#ffffff" fill-opacity="1"><g transform="translate(633.823937, 479.29238)"><g><path d="M 11.40625 -0.75 C 10.84375 -0.351562 10.210938 -0.0546875 9.515625 0.140625 C 8.828125 0.347656 8.125 0.453125 7.40625 0.453125 C 5.84375 0.429688 4.65625 -0.0078125 3.84375 -0.875 C 3.039062 -1.75 2.640625 -3.035156 2.640625 -4.734375 L 2.640625 -13.109375 L 0.15625 -13.109375 L 0.15625 -15.875 L 2.640625 -15.875 L 2.640625 -19.375 L 6.484375 -19.828125 L 6.484375 -15.875 L 10.171875 -15.875 L 9.78125 -13.109375 L 6.484375 -13.109375 L 6.484375 -4.828125 C 6.484375 -4.046875 6.617188 -3.484375 6.890625 -3.140625 C 7.160156 -2.804688 7.582031 -2.640625 8.15625 -2.640625 C 8.738281 -2.640625 9.367188 -2.828125 10.046875 -3.203125 Z M 11.40625 -0.75 "/></g></g></g><g fill="#ffffff" fill-opacity="1"><g transform="translate(644.473923, 479.29238)"><g><path d="M 14.046875 -4.203125 C 14.046875 -3.578125 14.140625 -3.117188 14.328125 -2.828125 C 14.515625 -2.546875 14.816406 -2.320312 15.234375 -2.15625 L 14.4375 0.390625 C 13.53125 0.304688 12.789062 0.0859375 12.21875 -0.265625 C 11.65625 -0.628906 11.222656 -1.179688 10.921875 -1.921875 C 10.378906 -1.117188 9.703125 -0.519531 8.890625 -0.125 C 8.085938 0.257812 7.1875 0.453125 6.1875 0.453125 C 4.601562 0.453125 3.347656 0.00390625 2.421875 -0.890625 C 1.503906 -1.796875 1.046875 -2.976562 1.046875 -4.4375 C 1.046875 -6.15625 1.671875 -7.46875 2.921875 -8.375 C 4.171875 -9.289062 5.957031 -9.75 8.28125 -9.75 L 10.265625 -9.75 L 10.265625 -10.65625 C 10.265625 -11.675781 10.023438 -12.390625 9.546875 -12.796875 C 9.078125 -13.203125 8.328125 -13.40625 7.296875 -13.40625 C 6.128906 -13.40625 4.726562 -13.125 3.09375 -12.5625 L 2.1875 -15.1875 C 4.164062 -15.9375 6.085938 -16.3125 7.953125 -16.3125 C 12.015625 -16.3125 14.046875 -14.492188 14.046875 -10.859375 Z M 7.203125 -2.34375 C 8.503906 -2.34375 9.523438 -2.992188 10.265625 -4.296875 L 10.265625 -7.5 L 8.671875 -7.5 C 6.191406 -7.5 4.953125 -6.578125 4.953125 -4.734375 C 4.953125 -3.972656 5.140625 -3.382812 5.515625 -2.96875 C 5.898438 -2.550781 6.460938 -2.34375 7.203125 -2.34375 Z M 7.203125 -2.34375 "/></g></g></g><g fill="#ffffff" fill-opacity="1"><g transform="translate(660.253906, 479.29238)"><g><path d="M 10.140625 -16.296875 C 10.722656 -16.296875 11.253906 -16.222656 11.734375 -16.078125 L 11.0625 -12.359375 C 10.582031 -12.484375 10.113281 -12.546875 9.65625 -12.546875 C 8.71875 -12.546875 7.976562 -12.207031 7.4375 -11.53125 C 6.894531 -10.863281 6.46875 -9.835938 6.15625 -8.453125 L 6.15625 0 L 2.3125 0 L 2.3125 -15.875 L 5.640625 -15.875 L 6 -12.75 C 6.375 -13.882812 6.921875 -14.757812 7.640625 -15.375 C 8.367188 -15.988281 9.203125 -16.296875 10.140625 -16.296875 Z M 10.140625 -16.296875 "/></g></g></g><g fill="#ffffff" fill-opacity="1"><g transform="translate(671.473876, 479.29238)"><g><path d="M 10.765625 -16.3125 C 12.191406 -16.3125 13.296875 -15.882812 14.078125 -15.03125 C 14.867188 -14.1875 15.265625 -13.003906 15.265625 -11.484375 L 15.265625 0 L 11.4375 0 L 11.4375 -10.890625 C 11.4375 -11.828125 11.269531 -12.484375 10.9375 -12.859375 C 10.601562 -13.242188 10.117188 -13.4375 9.484375 -13.4375 C 8.816406 -13.4375 8.21875 -13.226562 7.6875 -12.8125 C 7.164062 -12.40625 6.65625 -11.816406 6.15625 -11.046875 L 6.15625 0 L 2.3125 0 L 2.3125 -15.875 L 5.640625 -15.875 L 5.9375 -13.796875 C 7.238281 -15.472656 8.847656 -16.3125 10.765625 -16.3125 Z M 10.765625 -16.3125 "/></g></g></g><g fill="#ffffff" fill-opacity="1"><g transform="translate(688.303854, 479.29238)"><g><path d="M 8.796875 -16.3125 C 11.128906 -16.3125 12.953125 -15.566406 14.265625 -14.078125 C 15.578125 -12.585938 16.234375 -10.546875 16.234375 -7.953125 C 16.234375 -6.285156 15.929688 -4.816406 15.328125 -3.546875 C 14.734375 -2.285156 13.875 -1.300781 12.75 -0.59375 C 11.625 0.101562 10.296875 0.453125 8.765625 0.453125 C 6.421875 0.453125 4.585938 -0.289062 3.265625 -1.78125 C 1.953125 -3.269531 1.296875 -5.328125 1.296875 -7.953125 C 1.296875 -9.609375 1.59375 -11.066406 2.1875 -12.328125 C 2.789062 -13.585938 3.65625 -14.566406 4.78125 -15.265625 C 5.914062 -15.960938 7.253906 -16.3125 8.796875 -16.3125 Z M 8.796875 -13.40625 C 6.492188 -13.40625 5.34375 -11.585938 5.34375 -7.953125 C 5.34375 -6.066406 5.625 -4.675781 6.1875 -3.78125 C 6.757812 -2.894531 7.617188 -2.453125 8.765625 -2.453125 C 9.898438 -2.453125 10.753906 -2.898438 11.328125 -3.796875 C 11.898438 -4.703125 12.1875 -6.085938 12.1875 -7.953125 C 12.1875 -9.804688 11.898438 -11.175781 11.328125 -12.0625 C 10.753906 -12.957031 9.910156 -13.40625 8.796875 -13.40625 Z M 8.796875 -13.40625 "/></g></g></g><g fill="#ffffff" fill-opacity="1"><g transform="translate(705.223828, 479.29238)"><g><path d="M 7.3125 -16.3125 C 9.457031 -16.3125 11.335938 -15.6875 12.953125 -14.4375 L 11.453125 -12.1875 C 10.097656 -13.039062 8.769531 -13.46875 7.46875 -13.46875 C 6.707031 -13.46875 6.113281 -13.320312 5.6875 -13.03125 C 5.269531 -12.738281 5.0625 -12.351562 5.0625 -11.875 C 5.0625 -11.519531 5.148438 -11.222656 5.328125 -10.984375 C 5.515625 -10.742188 5.84375 -10.515625 6.3125 -10.296875 C 6.78125 -10.085938 7.476562 -9.851562 8.40625 -9.59375 C 10.125 -9.132812 11.394531 -8.523438 12.21875 -7.765625 C 13.050781 -7.003906 13.46875 -5.945312 13.46875 -4.59375 C 13.46875 -3.007812 12.828125 -1.769531 11.546875 -0.875 C 10.265625 0.0078125 8.675781 0.453125 6.78125 0.453125 C 5.476562 0.453125 4.289062 0.253906 3.21875 -0.140625 C 2.15625 -0.546875 1.234375 -1.097656 0.453125 -1.796875 L 2.375 -3.953125 C 3.75 -2.921875 5.1875 -2.40625 6.6875 -2.40625 C 7.550781 -2.40625 8.238281 -2.570312 8.75 -2.90625 C 9.257812 -3.25 9.515625 -3.71875 9.515625 -4.3125 C 9.515625 -4.78125 9.414062 -5.144531 9.21875 -5.40625 C 9.03125 -5.675781 8.691406 -5.914062 8.203125 -6.125 C 7.710938 -6.34375 6.945312 -6.601562 5.90625 -6.90625 C 4.289062 -7.34375 3.101562 -7.957031 2.34375 -8.75 C 1.582031 -9.539062 1.203125 -10.523438 1.203125 -11.703125 C 1.203125 -12.578125 1.457031 -13.363281 1.96875 -14.0625 C 2.476562 -14.769531 3.195312 -15.320312 4.125 -15.71875 C 5.050781 -16.113281 6.113281 -16.3125 7.3125 -16.3125 Z M 7.3125 -16.3125 "/></g></g></g><g fill="#ffffff" fill-opacity="1"><g transform="translate(718.903798, 479.29238)"><g/></g></g><g fill="#ffffff" fill-opacity="1"><g transform="translate(725.803784, 479.29238)"><g><path d="M 7.3125 -16.3125 C 9.457031 -16.3125 11.335938 -15.6875 12.953125 -14.4375 L 11.453125 -12.1875 C 10.097656 -13.039062 8.769531 -13.46875 7.46875 -13.46875 C 6.707031 -13.46875 6.113281 -13.320312 5.6875 -13.03125 C 5.269531 -12.738281 5.0625 -12.351562 5.0625 -11.875 C 5.0625 -11.519531 5.148438 -11.222656 5.328125 -10.984375 C 5.515625 -10.742188 5.84375 -10.515625 6.3125 -10.296875 C 6.78125 -10.085938 7.476562 -9.851562 8.40625 -9.59375 C 10.125 -9.132812 11.394531 -8.523438 12.21875 -7.765625 C 13.050781 -7.003906 13.46875 -5.945312 13.46875 -4.59375 C 13.46875 -3.007812 12.828125 -1.769531 11.546875 -0.875 C 10.265625 0.0078125 8.675781 0.453125 6.78125 0.453125 C 5.476562 0.453125 4.289062 0.253906 3.21875 -0.140625 C 2.15625 -0.546875 1.234375 -1.097656 0.453125 -1.796875 L 2.375 -3.953125 C 3.75 -2.921875 5.1875 -2.40625 6.6875 -2.40625 C 7.550781 -2.40625 8.238281 -2.570312 8.75 -2.90625 C 9.257812 -3.25 9.515625 -3.71875 9.515625 -4.3125 C 9.515625 -4.78125 9.414062 -5.144531 9.21875 -5.40625 C 9.03125 -5.675781 8.691406 -5.914062 8.203125 -6.125 C 7.710938 -6.34375 6.945312 -6.601562 5.90625 -6.90625 C 4.289062 -7.34375 3.101562 -7.957031 2.34375 -8.75 C 1.582031 -9.539062 1.203125 -10.523438 1.203125 -11.703125 C 1.203125 -12.578125 1.457031 -13.363281 1.96875 -14.0625 C 2.476562 -14.769531 3.195312 -15.320312 4.125 -15.71875 C 5.050781 -16.113281 6.113281 -16.3125 7.3125 -16.3125 Z M 7.3125 -16.3125 "/></g></g></g><g fill="#ffffff" fill-opacity="1"><g transform="translate(739.483753, 479.29238)"><g><path d="M 6.15625 -15.875 L 6.15625 0 L 2.3125 0 L 2.3125 -15.875 Z M 4.203125 -23.90625 C 4.921875 -23.90625 5.503906 -23.679688 5.953125 -23.234375 C 6.398438 -22.785156 6.625 -22.226562 6.625 -21.5625 C 6.625 -20.90625 6.398438 -20.359375 5.953125 -19.921875 C 5.503906 -19.484375 4.921875 -19.265625 4.203125 -19.265625 C 3.503906 -19.265625 2.925781 -19.484375 2.46875 -19.921875 C 2.019531 -20.359375 1.796875 -20.90625 1.796875 -21.5625 C 1.796875 -22.226562 2.019531 -22.785156 2.46875 -23.234375 C 2.925781 -23.679688 3.503906 -23.90625 4.203125 -23.90625 Z M 4.203125 -23.90625 "/></g></g></g><g fill="#ffffff" fill-opacity="1"><g transform="translate(747.343738, 479.29238)"><g/></g></g><g fill="#ffffff" fill-opacity="1"><g transform="translate(754.243724, 479.29238)"><g><path d="M 11.40625 -0.75 C 10.84375 -0.351562 10.210938 -0.0546875 9.515625 0.140625 C 8.828125 0.347656 8.125 0.453125 7.40625 0.453125 C 5.84375 0.429688 4.65625 -0.0078125 3.84375 -0.875 C 3.039062 -1.75 2.640625 -3.035156 2.640625 -4.734375 L 2.640625 -13.109375 L 0.15625 -13.109375 L 0.15625 -15.875 L 2.640625 -15.875 L 2.640625 -19.375 L 6.484375 -19.828125 L 6.484375 -15.875 L 10.171875 -15.875 L 9.78125 -13.109375 L 6.484375 -13.109375 L 6.484375 -4.828125 C 6.484375 -4.046875 6.617188 -3.484375 6.890625 -3.140625 C 7.160156 -2.804688 7.582031 -2.640625 8.15625 -2.640625 C 8.738281 -2.640625 9.367188 -2.828125 10.046875 -3.203125 Z M 11.40625 -0.75 "/></g></g></g><g fill="#ffffff" fill-opacity="1"><g transform="translate(764.893687, 479.29238)"><g><path d="M 6.15625 -15.875 L 6.15625 0 L 2.3125 0 L 2.3125 -15.875 Z M 4.203125 -23.90625 C 4.921875 -23.90625 5.503906 -23.679688 5.953125 -23.234375 C 6.398438 -22.785156 6.625 -22.226562 6.625 -21.5625 C 6.625 -20.90625 6.398438 -20.359375 5.953125 -19.921875 C 5.503906 -19.484375 4.921875 -19.265625 4.203125 -19.265625 C 3.503906 -19.265625 2.925781 -19.484375 2.46875 -19.921875 C 2.019531 -20.359375 1.796875 -20.90625 1.796875 -21.5625 C 1.796875 -22.226562 2.019531 -22.785156 2.46875 -23.234375 C 2.925781 -23.679688 3.503906 -23.90625 4.203125 -23.90625 Z M 4.203125 -23.90625 "/></g></g></g><g fill="#ffffff" fill-opacity="1"><g transform="translate(772.753672, 479.29238)"><g><path d="M 15.328125 -8.3125 C 15.328125 -8.113281 15.296875 -7.59375 15.234375 -6.75 L 5.28125 -6.75 C 5.394531 -5.207031 5.789062 -4.101562 6.46875 -3.4375 C 7.15625 -2.78125 8.0625 -2.453125 9.1875 -2.453125 C 9.882812 -2.453125 10.539062 -2.566406 11.15625 -2.796875 C 11.78125 -3.035156 12.441406 -3.394531 13.140625 -3.875 L 14.734375 -1.6875 C 12.972656 -0.257812 11.007812 0.453125 8.84375 0.453125 C 6.425781 0.453125 4.5625 -0.285156 3.25 -1.765625 C 1.945312 -3.242188 1.296875 -5.265625 1.296875 -7.828125 C 1.296875 -9.453125 1.570312 -10.90625 2.125 -12.1875 C 2.6875 -13.476562 3.5 -14.488281 4.5625 -15.21875 C 5.625 -15.945312 6.882812 -16.3125 8.34375 -16.3125 C 10.5625 -16.3125 12.28125 -15.609375 13.5 -14.203125 C 14.71875 -12.796875 15.328125 -10.832031 15.328125 -8.3125 Z M 11.515625 -9.421875 C 11.515625 -12.203125 10.488281 -13.59375 8.4375 -13.59375 C 7.488281 -13.59375 6.75 -13.242188 6.21875 -12.546875 C 5.695312 -11.859375 5.382812 -10.753906 5.28125 -9.234375 L 11.515625 -9.234375 Z M 11.515625 -9.421875 "/></g></g></g><g fill="#ffffff" fill-opacity="1"><g transform="translate(788.623651, 479.29238)"><g><path d="M 10.765625 -16.3125 C 12.191406 -16.3125 13.296875 -15.882812 14.078125 -15.03125 C 14.867188 -14.1875 15.265625 -13.003906 15.265625 -11.484375 L 15.265625 0 L 11.4375 0 L 11.4375 -10.890625 C 11.4375 -11.828125 11.269531 -12.484375 10.9375 -12.859375 C 10.601562 -13.242188 10.117188 -13.4375 9.484375 -13.4375 C 8.816406 -13.4375 8.21875 -13.226562 7.6875 -12.8125 C 7.164062 -12.40625 6.65625 -11.816406 6.15625 -11.046875 L 6.15625 0 L 2.3125 0 L 2.3125 -15.875 L 5.640625 -15.875 L 5.9375 -13.796875 C 7.238281 -15.472656 8.847656 -16.3125 10.765625 -16.3125 Z M 10.765625 -16.3125 "/></g></g></g><g fill="#ffffff" fill-opacity="1"><g transform="translate(805.453606, 479.29238)"><g><path d="M 15.328125 -8.3125 C 15.328125 -8.113281 15.296875 -7.59375 15.234375 -6.75 L 5.28125 -6.75 C 5.394531 -5.207031 5.789062 -4.101562 6.46875 -3.4375 C 7.15625 -2.78125 8.0625 -2.453125 9.1875 -2.453125 C 9.882812 -2.453125 10.539062 -2.566406 11.15625 -2.796875 C 11.78125 -3.035156 12.441406 -3.394531 13.140625 -3.875 L 14.734375 -1.6875 C 12.972656 -0.257812 11.007812 0.453125 8.84375 0.453125 C 6.425781 0.453125 4.5625 -0.285156 3.25 -1.765625 C 1.945312 -3.242188 1.296875 -5.265625 1.296875 -7.828125 C 1.296875 -9.453125 1.570312 -10.90625 2.125 -12.1875 C 2.6875 -13.476562 3.5 -14.488281 4.5625 -15.21875 C 5.625 -15.945312 6.882812 -16.3125 8.34375 -16.3125 C 10.5625 -16.3125 12.28125 -15.609375 13.5 -14.203125 C 14.71875 -12.796875 15.328125 -10.832031 15.328125 -8.3125 Z M 11.515625 -9.421875 C 11.515625 -12.203125 10.488281 -13.59375 8.4375 -13.59375 C 7.488281 -13.59375 6.75 -13.242188 6.21875 -12.546875 C 5.695312 -11.859375 5.382812 -10.753906 5.28125 -9.234375 L 11.515625 -9.234375 Z M 11.515625 -9.421875 "/></g></g></g><g fill="#ffffff" fill-opacity="1"><g transform="translate(821.323585, 479.29238)"><g><path d="M 7.3125 -16.3125 C 9.457031 -16.3125 11.335938 -15.6875 12.953125 -14.4375 L 11.453125 -12.1875 C 10.097656 -13.039062 8.769531 -13.46875 7.46875 -13.46875 C 6.707031 -13.46875 6.113281 -13.320312 5.6875 -13.03125 C 5.269531 -12.738281 5.0625 -12.351562 5.0625 -11.875 C 5.0625 -11.519531 5.148438 -11.222656 5.328125 -10.984375 C 5.515625 -10.742188 5.84375 -10.515625 6.3125 -10.296875 C 6.78125 -10.085938 7.476562 -9.851562 8.40625 -9.59375 C 10.125 -9.132812 11.394531 -8.523438 12.21875 -7.765625 C 13.050781 -7.003906 13.46875 -5.945312 13.46875 -4.59375 C 13.46875 -3.007812 12.828125 -1.769531 11.546875 -0.875 C 10.265625 0.0078125 8.675781 0.453125 6.78125 0.453125 C 5.476562 0.453125 4.289062 0.253906 3.21875 -0.140625 C 2.15625 -0.546875 1.234375 -1.097656 0.453125 -1.796875 L 2.375 -3.953125 C 3.75 -2.921875 5.1875 -2.40625 6.6875 -2.40625 C 7.550781 -2.40625 8.238281 -2.570312 8.75 -2.90625 C 9.257812 -3.25 9.515625 -3.71875 9.515625 -4.3125 C 9.515625 -4.78125 9.414062 -5.144531 9.21875 -5.40625 C 9.03125 -5.675781 8.691406 -5.914062 8.203125 -6.125 C 7.710938 -6.34375 6.945312 -6.601562 5.90625 -6.90625 C 4.289062 -7.34375 3.101562 -7.957031 2.34375 -8.75 C 1.582031 -9.539062 1.203125 -10.523438 1.203125 -11.703125 C 1.203125 -12.578125 1.457031 -13.363281 1.96875 -14.0625 C 2.476562 -14.769531 3.195312 -15.320312 4.125 -15.71875 C 5.050781 -16.113281 6.113281 -16.3125 7.3125 -16.3125 Z M 7.3125 -16.3125 "/></g></g></g><g fill="#ffffff" fill-opacity="1"><g transform="translate(835.003576, 479.29238)"><g/></g></g><g fill="#ffffff" fill-opacity="1"><g transform="translate(841.903539, 479.29238)"><g><path d="M 14.046875 -4.203125 C 14.046875 -3.578125 14.140625 -3.117188 14.328125 -2.828125 C 14.515625 -2.546875 14.816406 -2.320312 15.234375 -2.15625 L 14.4375 0.390625 C 13.53125 0.304688 12.789062 0.0859375 12.21875 -0.265625 C 11.65625 -0.628906 11.222656 -1.179688 10.921875 -1.921875 C 10.378906 -1.117188 9.703125 -0.519531 8.890625 -0.125 C 8.085938 0.257812 7.1875 0.453125 6.1875 0.453125 C 4.601562 0.453125 3.347656 0.00390625 2.421875 -0.890625 C 1.503906 -1.796875 1.046875 -2.976562 1.046875 -4.4375 C 1.046875 -6.15625 1.671875 -7.46875 2.921875 -8.375 C 4.171875 -9.289062 5.957031 -9.75 8.28125 -9.75 L 10.265625 -9.75 L 10.265625 -10.65625 C 10.265625 -11.675781 10.023438 -12.390625 9.546875 -12.796875 C 9.078125 -13.203125 8.328125 -13.40625 7.296875 -13.40625 C 6.128906 -13.40625 4.726562 -13.125 3.09375 -12.5625 L 2.1875 -15.1875 C 4.164062 -15.9375 6.085938 -16.3125 7.953125 -16.3125 C 12.015625 -16.3125 14.046875 -14.492188 14.046875 -10.859375 Z M 7.203125 -2.34375 C 8.503906 -2.34375 9.523438 -2.992188 10.265625 -4.296875 L 10.265625 -7.5 L 8.671875 -7.5 C 6.191406 -7.5 4.953125 -6.578125 4.953125 -4.734375 C 4.953125 -3.972656 5.140625 -3.382812 5.515625 -2.96875 C 5.898438 -2.550781 6.460938 -2.34375 7.203125 -2.34375 Z M 7.203125 -2.34375 "/></g></g></g><g fill="#ffffff" fill-opacity="1"><g transform="translate(857.683522, 479.29238)"><g><path d="M 6.0625 0.453125 C 4.84375 0.453125 3.882812 0.0976562 3.1875 -0.609375 C 2.5 -1.328125 2.15625 -2.332031 2.15625 -3.625 L 2.15625 -22.234375 L 6 -22.65625 L 6 -3.75 C 6 -3.007812 6.300781 -2.640625 6.90625 -2.640625 C 7.195312 -2.640625 7.492188 -2.691406 7.796875 -2.796875 L 8.609375 -0.09375 C 7.804688 0.269531 6.957031 0.453125 6.0625 0.453125 Z M 6.0625 0.453125 "/></g></g></g><g fill="#ffffff" fill-opacity="1"><g transform="translate(865.933522, 479.29238)"><g><path d="M 16.109375 -15.03125 C 15.085938 -14.664062 13.554688 -14.484375 11.515625 -14.484375 C 12.492188 -14.046875 13.21875 -13.5 13.6875 -12.84375 C 14.164062 -12.195312 14.40625 -11.382812 14.40625 -10.40625 C 14.40625 -9.363281 14.148438 -8.441406 13.640625 -7.640625 C 13.128906 -6.847656 12.382812 -6.21875 11.40625 -5.75 C 10.4375 -5.289062 9.304688 -5.0625 8.015625 -5.0625 C 7.296875 -5.0625 6.664062 -5.144531 6.125 -5.3125 C 5.675781 -5.007812 5.453125 -4.617188 5.453125 -4.140625 C 5.453125 -3.398438 6.09375 -3.03125 7.375 -3.03125 L 9.8125 -3.03125 C 10.96875 -3.03125 11.976562 -2.835938 12.84375 -2.453125 C 13.71875 -2.078125 14.394531 -1.539062 14.875 -0.84375 C 15.351562 -0.15625 15.59375 0.613281 15.59375 1.46875 C 15.59375 3.070312 14.910156 4.316406 13.546875 5.203125 C 12.191406 6.097656 10.238281 6.546875 7.6875 6.546875 C 5.84375 6.546875 4.394531 6.351562 3.34375 5.96875 C 2.289062 5.59375 1.546875 5.039062 1.109375 4.3125 C 0.671875 3.59375 0.453125 2.675781 0.453125 1.5625 L 3.90625 1.5625 C 3.90625 2.125 4.007812 2.5625 4.21875 2.875 C 4.425781 3.195312 4.804688 3.4375 5.359375 3.59375 C 5.910156 3.757812 6.703125 3.84375 7.734375 3.84375 C 9.203125 3.84375 10.234375 3.660156 10.828125 3.296875 C 11.429688 2.941406 11.734375 2.421875 11.734375 1.734375 C 11.734375 1.140625 11.5 0.675781 11.03125 0.34375 C 10.570312 0.0078125 9.90625 -0.15625 9.03125 -0.15625 L 6.625 -0.15625 C 5.125 -0.15625 3.992188 -0.441406 3.234375 -1.015625 C 2.472656 -1.597656 2.09375 -2.328125 2.09375 -3.203125 C 2.09375 -3.765625 2.257812 -4.304688 2.59375 -4.828125 C 2.925781 -5.347656 3.378906 -5.789062 3.953125 -6.15625 C 2.992188 -6.65625 2.289062 -7.269531 1.84375 -8 C 1.394531 -8.726562 1.171875 -9.601562 1.171875 -10.625 C 1.171875 -11.757812 1.445312 -12.753906 2 -13.609375 C 2.5625 -14.472656 3.335938 -15.140625 4.328125 -15.609375 C 5.316406 -16.078125 6.453125 -16.3125 7.734375 -16.3125 C 9.421875 -16.28125 10.773438 -16.40625 11.796875 -16.6875 C 12.828125 -16.976562 13.945312 -17.445312 15.15625 -18.09375 Z M 7.796875 -13.703125 C 6.941406 -13.703125 6.269531 -13.425781 5.78125 -12.875 C 5.289062 -12.332031 5.046875 -11.601562 5.046875 -10.6875 C 5.046875 -9.71875 5.296875 -8.953125 5.796875 -8.390625 C 6.296875 -7.835938 6.984375 -7.5625 7.859375 -7.5625 C 8.773438 -7.5625 9.472656 -7.832031 9.953125 -8.375 C 10.441406 -8.925781 10.6875 -9.703125 10.6875 -10.703125 C 10.6875 -12.703125 9.722656 -13.703125 7.796875 -13.703125 Z M 7.796875 -13.703125 "/></g></g></g><g fill="#ffffff" fill-opacity="1"><g transform="translate(881.443516, 479.29238)"><g><path d="M 15 0 L 11.671875 0 L 11.453125 -2.21875 C 10.878906 -1.320312 10.195312 -0.648438 9.40625 -0.203125 C 8.613281 0.234375 7.675781 0.453125 6.59375 0.453125 C 5.175781 0.453125 4.082031 0.0195312 3.3125 -0.84375 C 2.539062 -1.71875 2.15625 -2.925781 2.15625 -4.46875 L 2.15625 -15.875 L 6 -15.875 L 6 -4.953125 C 6 -4.046875 6.15625 -3.398438 6.46875 -3.015625 C 6.78125 -2.640625 7.273438 -2.453125 7.953125 -2.453125 C 9.171875 -2.453125 10.238281 -3.203125 11.15625 -4.703125 L 11.15625 -15.875 L 15 -15.875 Z M 15 0 "/></g></g></g><g fill="#ffffff" fill-opacity="1"><g transform="translate(898.153491, 479.29238)"><g><path d="M 10.765625 -16.3125 C 12.191406 -16.3125 13.296875 -15.882812 14.078125 -15.03125 C 14.867188 -14.1875 15.265625 -13.003906 15.265625 -11.484375 L 15.265625 0 L 11.4375 0 L 11.4375 -10.890625 C 11.4375 -11.828125 11.269531 -12.484375 10.9375 -12.859375 C 10.601562 -13.242188 10.117188 -13.4375 9.484375 -13.4375 C 8.816406 -13.4375 8.21875 -13.226562 7.6875 -12.8125 C 7.164062 -12.40625 6.65625 -11.816406 6.15625 -11.046875 L 6.15625 0 L 2.3125 0 L 2.3125 -15.875 L 5.640625 -15.875 L 5.9375 -13.796875 C 7.238281 -15.472656 8.847656 -16.3125 10.765625 -16.3125 Z M 10.765625 -16.3125 "/></g></g></g><g fill="#ffffff" fill-opacity="1"><g transform="translate(914.983446, 479.29238)"><g><path d="M 14.046875 -4.203125 C 14.046875 -3.578125 14.140625 -3.117188 14.328125 -2.828125 C 14.515625 -2.546875 14.816406 -2.320312 15.234375 -2.15625 L 14.4375 0.390625 C 13.53125 0.304688 12.789062 0.0859375 12.21875 -0.265625 C 11.65625 -0.628906 11.222656 -1.179688 10.921875 -1.921875 C 10.378906 -1.117188 9.703125 -0.519531 8.890625 -0.125 C 8.085938 0.257812 7.1875 0.453125 6.1875 0.453125 C 4.601562 0.453125 3.347656 0.00390625 2.421875 -0.890625 C 1.503906 -1.796875 1.046875 -2.976562 1.046875 -4.4375 C 1.046875 -6.15625 1.671875 -7.46875 2.921875 -8.375 C 4.171875 -9.289062 5.957031 -9.75 8.28125 -9.75 L 10.265625 -9.75 L 10.265625 -10.65625 C 10.265625 -11.675781 10.023438 -12.390625 9.546875 -12.796875 C 9.078125 -13.203125 8.328125 -13.40625 7.296875 -13.40625 C 6.128906 -13.40625 4.726562 -13.125 3.09375 -12.5625 L 2.1875 -15.1875 C 4.164062 -15.9375 6.085938 -16.3125 7.953125 -16.3125 C 12.015625 -16.3125 14.046875 -14.492188 14.046875 -10.859375 Z M 7.203125 -2.34375 C 8.503906 -2.34375 9.523438 -2.992188 10.265625 -4.296875 L 10.265625 -7.5 L 8.671875 -7.5 C 6.191406 -7.5 4.953125 -6.578125 4.953125 -4.734375 C 4.953125 -3.972656 5.140625 -3.382812 5.515625 -2.96875 C 5.898438 -2.550781 6.460938 -2.34375 7.203125 -2.34375 Z M 7.203125 -2.34375 "/></g></g></g><g fill="#ffffff" fill-opacity="1"><g transform="translate(930.763428, 479.29238)"><g/></g></g><g fill="#ffffff" fill-opacity="1"><g transform="translate(937.663392, 479.29238)"><g><path d="M 10.53125 -16.3125 C 12.53125 -16.3125 14.007812 -15.582031 14.96875 -14.125 C 15.925781 -12.664062 16.40625 -10.617188 16.40625 -7.984375 C 16.40625 -6.335938 16.160156 -4.878906 15.671875 -3.609375 C 15.179688 -2.335938 14.460938 -1.34375 13.515625 -0.625 C 12.566406 0.09375 11.441406 0.453125 10.140625 0.453125 C 8.460938 0.453125 7.132812 -0.128906 6.15625 -1.296875 L 6.15625 6.125 L 2.3125 6.546875 L 2.3125 -15.875 L 5.671875 -15.875 L 5.875 -13.921875 C 6.5 -14.722656 7.207031 -15.320312 8 -15.71875 C 8.800781 -16.113281 9.644531 -16.3125 10.53125 -16.3125 Z M 9.0625 -2.484375 C 11.28125 -2.484375 12.390625 -4.304688 12.390625 -7.953125 C 12.390625 -9.890625 12.140625 -11.285156 11.640625 -12.140625 C 11.140625 -13.003906 10.390625 -13.4375 9.390625 -13.4375 C 8.753906 -13.4375 8.15625 -13.238281 7.59375 -12.84375 C 7.03125 -12.457031 6.550781 -11.9375 6.15625 -11.28125 L 6.15625 -4.140625 C 6.894531 -3.035156 7.863281 -2.484375 9.0625 -2.484375 Z M 9.0625 -2.484375 "/></g></g></g><g fill="#ffffff" fill-opacity="1"><g transform="translate(954.943374, 479.29238)"><g><path d="M 10.140625 -16.296875 C 10.722656 -16.296875 11.253906 -16.222656 11.734375 -16.078125 L 11.0625 -12.359375 C 10.582031 -12.484375 10.113281 -12.546875 9.65625 -12.546875 C 8.71875 -12.546875 7.976562 -12.207031 7.4375 -11.53125 C 6.894531 -10.863281 6.46875 -9.835938 6.15625 -8.453125 L 6.15625 0 L 2.3125 0 L 2.3125 -15.875 L 5.640625 -15.875 L 6 -12.75 C 6.375 -13.882812 6.921875 -14.757812 7.640625 -15.375 C 8.367188 -15.988281 9.203125 -16.296875 10.140625 -16.296875 Z M 10.140625 -16.296875 "/></g></g></g><g fill="#ffffff" fill-opacity="1"><g transform="translate(966.163344, 479.29238)"><g><path d="M 15.328125 -8.3125 C 15.328125 -8.113281 15.296875 -7.59375 15.234375 -6.75 L 5.28125 -6.75 C 5.394531 -5.207031 5.789062 -4.101562 6.46875 -3.4375 C 7.15625 -2.78125 8.0625 -2.453125 9.1875 -2.453125 C 9.882812 -2.453125 10.539062 -2.566406 11.15625 -2.796875 C 11.78125 -3.035156 12.441406 -3.394531 13.140625 -3.875 L 14.734375 -1.6875 C 12.972656 -0.257812 11.007812 0.453125 8.84375 0.453125 C 6.425781 0.453125 4.5625 -0.285156 3.25 -1.765625 C 1.945312 -3.242188 1.296875 -5.265625 1.296875 -7.828125 C 1.296875 -9.453125 1.570312 -10.90625 2.125 -12.1875 C 2.6875 -13.476562 3.5 -14.488281 4.5625 -15.21875 C 5.625 -15.945312 6.882812 -16.3125 8.34375 -16.3125 C 10.5625 -16.3125 12.28125 -15.609375 13.5 -14.203125 C 14.71875 -12.796875 15.328125 -10.832031 15.328125 -8.3125 Z M 11.515625 -9.421875 C 11.515625 -12.203125 10.488281 -13.59375 8.4375 -13.59375 C 7.488281 -13.59375 6.75 -13.242188 6.21875 -12.546875 C 5.695312 -11.859375 5.382812 -10.753906 5.28125 -9.234375 L 11.515625 -9.234375 Z M 11.515625 -9.421875 "/></g></g></g><g fill="#ffffff" fill-opacity="1"><g transform="translate(982.033323, 479.29238)"><g><path d="M 16.109375 -15.03125 C 15.085938 -14.664062 13.554688 -14.484375 11.515625 -14.484375 C 12.492188 -14.046875 13.21875 -13.5 13.6875 -12.84375 C 14.164062 -12.195312 14.40625 -11.382812 14.40625 -10.40625 C 14.40625 -9.363281 14.148438 -8.441406 13.640625 -7.640625 C 13.128906 -6.847656 12.382812 -6.21875 11.40625 -5.75 C 10.4375 -5.289062 9.304688 -5.0625 8.015625 -5.0625 C 7.296875 -5.0625 6.664062 -5.144531 6.125 -5.3125 C 5.675781 -5.007812 5.453125 -4.617188 5.453125 -4.140625 C 5.453125 -3.398438 6.09375 -3.03125 7.375 -3.03125 L 9.8125 -3.03125 C 10.96875 -3.03125 11.976562 -2.835938 12.84375 -2.453125 C 13.71875 -2.078125 14.394531 -1.539062 14.875 -0.84375 C 15.351562 -0.15625 15.59375 0.613281 15.59375 1.46875 C 15.59375 3.070312 14.910156 4.316406 13.546875 5.203125 C 12.191406 6.097656 10.238281 6.546875 7.6875 6.546875 C 5.84375 6.546875 4.394531 6.351562 3.34375 5.96875 C 2.289062 5.59375 1.546875 5.039062 1.109375 4.3125 C 0.671875 3.59375 0.453125 2.675781 0.453125 1.5625 L 3.90625 1.5625 C 3.90625 2.125 4.007812 2.5625 4.21875 2.875 C 4.425781 3.195312 4.804688 3.4375 5.359375 3.59375 C 5.910156 3.757812 6.703125 3.84375 7.734375 3.84375 C 9.203125 3.84375 10.234375 3.660156 10.828125 3.296875 C 11.429688 2.941406 11.734375 2.421875 11.734375 1.734375 C 11.734375 1.140625 11.5 0.675781 11.03125 0.34375 C 10.570312 0.0078125 9.90625 -0.15625 9.03125 -0.15625 L 6.625 -0.15625 C 5.125 -0.15625 3.992188 -0.441406 3.234375 -1.015625 C 2.472656 -1.597656 2.09375 -2.328125 2.09375 -3.203125 C 2.09375 -3.765625 2.257812 -4.304688 2.59375 -4.828125 C 2.925781 -5.347656 3.378906 -5.789062 3.953125 -6.15625 C 2.992188 -6.65625 2.289062 -7.269531 1.84375 -8 C 1.394531 -8.726562 1.171875 -9.601562 1.171875 -10.625 C 1.171875 -11.757812 1.445312 -12.753906 2 -13.609375 C 2.5625 -14.472656 3.335938 -15.140625 4.328125 -15.609375 C 5.316406 -16.078125 6.453125 -16.3125 7.734375 -16.3125 C 9.421875 -16.28125 10.773438 -16.40625 11.796875 -16.6875 C 12.828125 -16.976562 13.945312 -17.445312 15.15625 -18.09375 Z M 7.796875 -13.703125 C 6.941406 -13.703125 6.269531 -13.425781 5.78125 -12.875 C 5.289062 -12.332031 5.046875 -11.601562 5.046875 -10.6875 C 5.046875 -9.71875 5.296875 -8.953125 5.796875 -8.390625 C 6.296875 -7.835938 6.984375 -7.5625 7.859375 -7.5625 C 8.773438 -7.5625 9.472656 -7.832031 9.953125 -8.375 C 10.441406 -8.925781 10.6875 -9.703125 10.6875 -10.703125 C 10.6875 -12.703125 9.722656 -13.703125 7.796875 -13.703125 Z M 7.796875 -13.703125 "/></g></g></g><g fill="#ffffff" fill-opacity="1"><g transform="translate(997.543317, 479.29238)"><g><path d="M 15 0 L 11.671875 0 L 11.453125 -2.21875 C 10.878906 -1.320312 10.195312 -0.648438 9.40625 -0.203125 C 8.613281 0.234375 7.675781 0.453125 6.59375 0.453125 C 5.175781 0.453125 4.082031 0.0195312 3.3125 -0.84375 C 2.539062 -1.71875 2.15625 -2.925781 2.15625 -4.46875 L 2.15625 -15.875 L 6 -15.875 L 6 -4.953125 C 6 -4.046875 6.15625 -3.398438 6.46875 -3.015625 C 6.78125 -2.640625 7.273438 -2.453125 7.953125 -2.453125 C 9.171875 -2.453125 10.238281 -3.203125 11.15625 -4.703125 L 11.15625 -15.875 L 15 -15.875 Z M 15 0 "/></g></g></g><g fill="#ffffff" fill-opacity="1"><g transform="translate(1014.253292, 479.29238)"><g><path d="M 10.765625 -16.3125 C 12.191406 -16.3125 13.296875 -15.882812 14.078125 -15.03125 C 14.867188 -14.1875 15.265625 -13.003906 15.265625 -11.484375 L 15.265625 0 L 11.4375 0 L 11.4375 -10.890625 C 11.4375 -11.828125 11.269531 -12.484375 10.9375 -12.859375 C 10.601562 -13.242188 10.117188 -13.4375 9.484375 -13.4375 C 8.816406 -13.4375 8.21875 -13.226562 7.6875 -12.8125 C 7.164062 -12.40625 6.65625 -11.816406 6.15625 -11.046875 L 6.15625 0 L 2.3125 0 L 2.3125 -15.875 L 5.640625 -15.875 L 5.9375 -13.796875 C 7.238281 -15.472656 8.847656 -16.3125 10.765625 -16.3125 Z M 10.765625 -16.3125 "/></g></g></g><g fill="#ffffff" fill-opacity="1"><g transform="translate(1031.083247, 479.29238)"><g><path d="M 11.40625 -0.75 C 10.84375 -0.351562 10.210938 -0.0546875 9.515625 0.140625 C 8.828125 0.347656 8.125 0.453125 7.40625 0.453125 C 5.84375 0.429688 4.65625 -0.0078125 3.84375 -0.875 C 3.039062 -1.75 2.640625 -3.035156 2.640625 -4.734375 L 2.640625 -13.109375 L 0.15625 -13.109375 L 0.15625 -15.875 L 2.640625 -15.875 L 2.640625 -19.375 L 6.484375 -19.828125 L 6.484375 -15.875 L 10.171875 -15.875 L 9.78125 -13.109375 L 6.484375 -13.109375 L 6.484375 -4.828125 C 6.484375 -4.046875 6.617188 -3.484375 6.890625 -3.140625 C 7.160156 -2.804688 7.582031 -2.640625 8.15625 -2.640625 C 8.738281 -2.640625 9.367188 -2.828125 10.046875 -3.203125 Z M 11.40625 -0.75 "/></g></g></g><g fill="#ffffff" fill-opacity="1"><g transform="translate(1041.73321, 479.29238)"><g><path d="M 14.046875 -4.203125 C 14.046875 -3.578125 14.140625 -3.117188 14.328125 -2.828125 C 14.515625 -2.546875 14.816406 -2.320312 15.234375 -2.15625 L 14.4375 0.390625 C 13.53125 0.304688 12.789062 0.0859375 12.21875 -0.265625 C 11.65625 -0.628906 11.222656 -1.179688 10.921875 -1.921875 C 10.378906 -1.117188 9.703125 -0.519531 8.890625 -0.125 C 8.085938 0.257812 7.1875 0.453125 6.1875 0.453125 C 4.601562 0.453125 3.347656 0.00390625 2.421875 -0.890625 C 1.503906 -1.796875 1.046875 -2.976562 1.046875 -4.4375 C 1.046875 -6.15625 1.671875 -7.46875 2.921875 -8.375 C 4.171875 -9.289062 5.957031 -9.75 8.28125 -9.75 L 10.265625 -9.75 L 10.265625 -10.65625 C 10.265625 -11.675781 10.023438 -12.390625 9.546875 -12.796875 C 9.078125 -13.203125 8.328125 -13.40625 7.296875 -13.40625 C 6.128906 -13.40625 4.726562 -13.125 3.09375 -12.5625 L 2.1875 -15.1875 C 4.164062 -15.9375 6.085938 -16.3125 7.953125 -16.3125 C 12.015625 -16.3125 14.046875 -14.492188 14.046875 -10.859375 Z M 7.203125 -2.34375 C 8.503906 -2.34375 9.523438 -2.992188 10.265625 -4.296875 L 10.265625 -7.5 L 8.671875 -7.5 C 6.191406 -7.5 4.953125 -6.578125 4.953125 -4.734375 C 4.953125 -3.972656 5.140625 -3.382812 5.515625 -2.96875 C 5.898438 -2.550781 6.460938 -2.34375 7.203125 -2.34375 Z M 7.203125 -2.34375 "/></g></g></g><g fill="#ffffff" fill-opacity="1"><g transform="translate(1057.513193, 479.29238)"><g><path d="M 3.5625 -4.40625 C 4.25 -4.40625 4.832031 -4.171875 5.3125 -3.703125 C 5.789062 -3.234375 6.03125 -2.660156 6.03125 -1.984375 C 6.03125 -1.316406 5.789062 -0.742188 5.3125 -0.265625 C 4.832031 0.210938 4.25 0.453125 3.5625 0.453125 C 2.90625 0.453125 2.34375 0.210938 1.875 -0.265625 C 1.40625 -0.742188 1.171875 -1.316406 1.171875 -1.984375 C 1.171875 -2.660156 1.398438 -3.234375 1.859375 -3.703125 C 2.316406 -4.171875 2.882812 -4.40625 3.5625 -4.40625 Z M 3.5625 -4.40625 "/></g></g></g><g clip-path="url(#id1)"><path fill="#86c7ed" d="M 1486.402344 690.960938 L 1014.863281 690.960938 L 915.011719 863.835938 L 1014.863281 1036.710938 L 1486.402344 1036.710938 L 1586.253906 863.835938 L 1486.402344 690.960938 " fill-opacity="1" fill-rule="nonzero"/></g><g clip-path="url(#id2)"><path fill="#a066cb" d="M 949.445312 729 L 880.734375 729 L 780.84375 901.875 L 880.734375 1074.75 L 949.445312 1074.75 L 1049.335938 901.875 L 949.445312 729 " fill-opacity="1" fill-rule="nonzero"/></g><g clip-path="url(#id3)"><path fill="#ffffff" d="M -142.335938 192.707031 L 512.074219 192.707031 L 653.613281 -52.542969 L 512.074219 -297.792969 L -142.335938 -297.792969 L -283.878906 -52.542969 L -142.335938 192.707031 " fill-opacity="1" fill-rule="nonzero"/></g><g fill="#000000" fill-opacity="1"><g transform="translate(205.195148, 105.12059)"><g><path d="M 16.015625 -20.28125 L 15.46875 -16.15625 L 10.671875 -16.15625 L 10.671875 0 L 5.28125 0 L 5.28125 -16.15625 L 0.203125 -16.15625 L 0.203125 -20.28125 Z M 16.015625 -20.28125 "/></g></g></g><g fill="#000000" fill-opacity="1"><g transform="translate(221.144759, 105.12059)"><g><path d="M 15.609375 -8.015625 C 15.609375 -7.898438 15.578125 -7.316406 15.515625 -6.265625 L 6.015625 -6.265625 C 6.148438 -5.085938 6.484375 -4.28125 7.015625 -3.84375 C 7.546875 -3.40625 8.3125 -3.1875 9.3125 -3.1875 C 9.894531 -3.1875 10.472656 -3.296875 11.046875 -3.515625 C 11.617188 -3.734375 12.242188 -4.078125 12.921875 -4.546875 L 15.03125 -1.6875 C 14.207031 -1.007812 13.269531 -0.46875 12.21875 -0.0625 C 11.164062 0.332031 10.03125 0.53125 8.8125 0.53125 C 6.164062 0.53125 4.15625 -0.210938 2.78125 -1.703125 C 1.414062 -3.191406 0.734375 -5.191406 0.734375 -7.703125 C 0.734375 -9.273438 1.019531 -10.691406 1.59375 -11.953125 C 2.164062 -13.222656 3.015625 -14.226562 4.140625 -14.96875 C 5.265625 -15.707031 6.625 -16.078125 8.21875 -16.078125 C 10.5 -16.078125 12.300781 -15.367188 13.625 -13.953125 C 14.945312 -12.546875 15.609375 -10.566406 15.609375 -8.015625 Z M 10.5 -9.484375 C 10.476562 -10.515625 10.300781 -11.3125 9.96875 -11.875 C 9.644531 -12.4375 9.09375 -12.71875 8.3125 -12.71875 C 7.59375 -12.71875 7.046875 -12.460938 6.671875 -11.953125 C 6.304688 -11.453125 6.078125 -10.570312 5.984375 -9.3125 L 10.5 -9.3125 Z M 10.5 -9.484375 "/></g></g></g><g fill="#000000" fill-opacity="1"><g transform="translate(237.327641, 105.12059)"><g><path d="M 8.546875 -16.078125 C 9.671875 -16.078125 10.679688 -15.910156 11.578125 -15.578125 C 12.472656 -15.242188 13.289062 -14.75 14.03125 -14.09375 L 11.84375 -11.0625 C 10.945312 -11.78125 10.003906 -12.140625 9.015625 -12.140625 C 8.054688 -12.140625 7.332031 -11.789062 6.84375 -11.09375 C 6.363281 -10.40625 6.125 -9.265625 6.125 -7.671875 C 6.125 -6.117188 6.363281 -5.035156 6.84375 -4.421875 C 7.332031 -3.804688 8.035156 -3.5 8.953125 -3.5 C 9.441406 -3.5 9.890625 -3.578125 10.296875 -3.734375 C 10.703125 -3.890625 11.195312 -4.148438 11.78125 -4.515625 L 14.03125 -1.34375 C 12.53125 -0.09375 10.75 0.53125 8.6875 0.53125 C 7.0625 0.53125 5.648438 0.191406 4.453125 -0.484375 C 3.253906 -1.171875 2.332031 -2.128906 1.6875 -3.359375 C 1.050781 -4.597656 0.734375 -6.023438 0.734375 -7.640625 C 0.734375 -9.273438 1.050781 -10.726562 1.6875 -12 C 2.332031 -13.28125 3.242188 -14.28125 4.421875 -15 C 5.597656 -15.71875 6.972656 -16.078125 8.546875 -16.078125 Z M 8.546875 -16.078125 "/></g></g></g><g fill="#000000" fill-opacity="1"><g transform="translate(251.294477, 105.12059)"><g><path d="M 11.140625 -16.078125 C 12.460938 -16.078125 13.503906 -15.664062 14.265625 -14.84375 C 15.023438 -14.03125 15.40625 -12.882812 15.40625 -11.40625 L 15.40625 0 L 10.203125 0 L 10.203125 -10.46875 C 10.203125 -11.15625 10.101562 -11.628906 9.90625 -11.890625 C 9.71875 -12.148438 9.429688 -12.28125 9.046875 -12.28125 C 8.222656 -12.28125 7.441406 -11.6875 6.703125 -10.5 L 6.703125 0 L 1.515625 0 L 1.515625 -15.546875 L 6.03125 -15.546875 L 6.421875 -13.796875 C 7.117188 -14.578125 7.847656 -15.148438 8.609375 -15.515625 C 9.367188 -15.890625 10.210938 -16.078125 11.140625 -16.078125 Z M 11.140625 -16.078125 "/></g></g></g><g fill="#000000" fill-opacity="1"><g transform="translate(268.060513, 105.12059)"><g><path d="M 8.515625 -16.078125 C 10.953125 -16.078125 12.859375 -15.347656 14.234375 -13.890625 C 15.617188 -12.429688 16.3125 -10.390625 16.3125 -7.765625 C 16.3125 -6.085938 16 -4.625 15.375 -3.375 C 14.75 -2.132812 13.847656 -1.171875 12.671875 -0.484375 C 11.492188 0.191406 10.109375 0.53125 8.515625 0.53125 C 6.085938 0.53125 4.179688 -0.195312 2.796875 -1.65625 C 1.421875 -3.113281 0.734375 -5.15625 0.734375 -7.78125 C 0.734375 -9.457031 1.039062 -10.914062 1.65625 -12.15625 C 2.28125 -13.40625 3.179688 -14.367188 4.359375 -15.046875 C 5.535156 -15.734375 6.921875 -16.078125 8.515625 -16.078125 Z M 8.515625 -12.3125 C 7.679688 -12.3125 7.0625 -11.945312 6.65625 -11.21875 C 6.257812 -10.488281 6.0625 -9.34375 6.0625 -7.78125 C 6.0625 -6.175781 6.257812 -5.015625 6.65625 -4.296875 C 7.0625 -3.585938 7.679688 -3.234375 8.515625 -3.234375 C 9.347656 -3.234375 9.960938 -3.597656 10.359375 -4.328125 C 10.765625 -5.054688 10.96875 -6.203125 10.96875 -7.765625 C 10.96875 -9.359375 10.765625 -10.515625 10.359375 -11.234375 C 9.960938 -11.953125 9.347656 -12.3125 8.515625 -12.3125 Z M 8.515625 -12.3125 "/></g></g></g><g fill="#000000" fill-opacity="1"><g transform="translate(285.088983, 105.12059)"><g><path d="M 5.953125 0.53125 C 4.492188 0.53125 3.363281 0.125 2.5625 -0.6875 C 1.769531 -1.507812 1.375 -2.691406 1.375 -4.234375 L 1.375 -21.671875 L 6.5625 -22.203125 L 6.5625 -4.40625 C 6.5625 -3.84375 6.816406 -3.5625 7.328125 -3.5625 C 7.535156 -3.5625 7.757812 -3.597656 8 -3.671875 L 8.953125 0 C 8.160156 0.351562 7.160156 0.53125 5.953125 0.53125 Z M 5.953125 0.53125 "/></g></g></g><g fill="#000000" fill-opacity="1"><g transform="translate(293.807331, 105.12059)"><g><path d="M 8.515625 -16.078125 C 10.953125 -16.078125 12.859375 -15.347656 14.234375 -13.890625 C 15.617188 -12.429688 16.3125 -10.390625 16.3125 -7.765625 C 16.3125 -6.085938 16 -4.625 15.375 -3.375 C 14.75 -2.132812 13.847656 -1.171875 12.671875 -0.484375 C 11.492188 0.191406 10.109375 0.53125 8.515625 0.53125 C 6.085938 0.53125 4.179688 -0.195312 2.796875 -1.65625 C 1.421875 -3.113281 0.734375 -5.15625 0.734375 -7.78125 C 0.734375 -9.457031 1.039062 -10.914062 1.65625 -12.15625 C 2.28125 -13.40625 3.179688 -14.367188 4.359375 -15.046875 C 5.535156 -15.734375 6.921875 -16.078125 8.515625 -16.078125 Z M 8.515625 -12.3125 C 7.679688 -12.3125 7.0625 -11.945312 6.65625 -11.21875 C 6.257812 -10.488281 6.0625 -9.34375 6.0625 -7.78125 C 6.0625 -6.175781 6.257812 -5.015625 6.65625 -4.296875 C 7.0625 -3.585938 7.679688 -3.234375 8.515625 -3.234375 C 9.347656 -3.234375 9.960938 -3.597656 10.359375 -4.328125 C 10.765625 -5.054688 10.96875 -6.203125 10.96875 -7.765625 C 10.96875 -9.359375 10.765625 -10.515625 10.359375 -11.234375 C 9.960938 -11.953125 9.347656 -12.3125 8.515625 -12.3125 Z M 8.515625 -12.3125 "/></g></g></g><g fill="#000000" fill-opacity="1"><g transform="translate(310.835801, 105.12059)"><g><path d="M 16.359375 -14.5625 C 15.296875 -14.113281 13.8125 -13.890625 11.90625 -13.890625 C 12.9375 -13.472656 13.6875 -12.945312 14.15625 -12.3125 C 14.632812 -11.6875 14.875 -10.867188 14.875 -9.859375 C 14.875 -8.867188 14.601562 -7.984375 14.0625 -7.203125 C 13.519531 -6.421875 12.738281 -5.804688 11.71875 -5.359375 C 10.707031 -4.921875 9.523438 -4.703125 8.171875 -4.703125 C 7.484375 -4.703125 6.910156 -4.75 6.453125 -4.84375 C 6.160156 -4.644531 6.015625 -4.398438 6.015625 -4.109375 C 6.015625 -3.859375 6.125 -3.65625 6.34375 -3.5 C 6.570312 -3.34375 7.003906 -3.265625 7.640625 -3.265625 L 9.921875 -3.265625 C 11.140625 -3.265625 12.21875 -3.066406 13.15625 -2.671875 C 14.09375 -2.285156 14.804688 -1.75 15.296875 -1.0625 C 15.796875 -0.375 16.046875 0.40625 16.046875 1.28125 C 16.046875 2.9375 15.328125 4.222656 13.890625 5.140625 C 12.453125 6.066406 10.378906 6.53125 7.671875 6.53125 C 5.703125 6.53125 4.160156 6.328125 3.046875 5.921875 C 1.929688 5.515625 1.148438 4.941406 0.703125 4.203125 C 0.253906 3.460938 0.03125 2.546875 0.03125 1.453125 L 4.671875 1.453125 C 4.671875 1.898438 4.75 2.242188 4.90625 2.484375 C 5.070312 2.734375 5.378906 2.910156 5.828125 3.015625 C 6.273438 3.128906 6.9375 3.1875 7.8125 3.1875 C 8.96875 3.1875 9.757812 3.046875 10.1875 2.765625 C 10.613281 2.492188 10.828125 2.125 10.828125 1.65625 C 10.828125 1.269531 10.671875 0.953125 10.359375 0.703125 C 10.046875 0.453125 9.554688 0.328125 8.890625 0.328125 L 6.6875 0.328125 C 4.988281 0.328125 3.722656 0.0390625 2.890625 -0.53125 C 2.066406 -1.113281 1.65625 -1.859375 1.65625 -2.765625 C 1.65625 -3.347656 1.832031 -3.910156 2.1875 -4.453125 C 2.539062 -5.003906 3.007812 -5.457031 3.59375 -5.8125 C 2.582031 -6.351562 1.851562 -6.984375 1.40625 -7.703125 C 0.957031 -8.421875 0.734375 -9.285156 0.734375 -10.296875 C 0.734375 -12.109375 1.375 -13.523438 2.65625 -14.546875 C 3.9375 -15.566406 5.644531 -16.078125 7.78125 -16.078125 C 9.300781 -16.015625 10.625 -16.179688 11.75 -16.578125 C 12.882812 -16.984375 14.035156 -17.554688 15.203125 -18.296875 Z M 7.9375 -12.6875 C 7.3125 -12.6875 6.8125 -12.488281 6.4375 -12.09375 C 6.070312 -11.695312 5.890625 -11.140625 5.890625 -10.421875 C 5.890625 -9.640625 6.070312 -9.039062 6.4375 -8.625 C 6.8125 -8.21875 7.320312 -8.015625 7.96875 -8.015625 C 9.320312 -8.015625 10 -8.832031 10 -10.46875 C 10 -11.226562 9.828125 -11.785156 9.484375 -12.140625 C 9.148438 -12.503906 8.632812 -12.6875 7.9375 -12.6875 Z M 7.9375 -12.6875 "/></g></g></g><g fill="#000000" fill-opacity="1"><g transform="translate(327.193625, 105.12059)"><g><path d="M 6.703125 -15.546875 L 6.703125 0 L 1.515625 0 L 1.515625 -15.546875 Z M 6.15625 -24.671875 L 8.140625 -20.828125 L 1.015625 -18.03125 L -0.375 -20.625 Z M 6.15625 -24.671875 "/></g></g></g><g fill="#000000" fill-opacity="1"><g transform="translate(335.416269, 105.12059)"><g><path d="M 14.40625 -4.78125 C 14.40625 -4.21875 14.476562 -3.800781 14.625 -3.53125 C 14.769531 -3.257812 15.03125 -3.054688 15.40625 -2.921875 L 14.359375 0.4375 C 13.359375 0.363281 12.539062 0.160156 11.90625 -0.171875 C 11.28125 -0.503906 10.773438 -1.03125 10.390625 -1.75 C 9.390625 -0.226562 7.820312 0.53125 5.6875 0.53125 C 4.15625 0.53125 2.925781 0.078125 2 -0.828125 C 1.070312 -1.734375 0.609375 -2.90625 0.609375 -4.34375 C 0.609375 -6.050781 1.238281 -7.363281 2.5 -8.28125 C 3.769531 -9.195312 5.601562 -9.65625 8 -9.65625 L 9.328125 -9.65625 L 9.328125 -10.1875 C 9.328125 -11.019531 9.148438 -11.585938 8.796875 -11.890625 C 8.453125 -12.191406 7.820312 -12.34375 6.90625 -12.34375 C 6.425781 -12.34375 5.820312 -12.269531 5.09375 -12.125 C 4.363281 -11.976562 3.617188 -11.773438 2.859375 -11.515625 L 1.71875 -14.875 C 2.65625 -15.269531 3.65625 -15.566406 4.71875 -15.765625 C 5.789062 -15.972656 6.785156 -16.078125 7.703125 -16.078125 C 10.035156 -16.078125 11.734375 -15.613281 12.796875 -14.6875 C 13.867188 -13.757812 14.40625 -12.34375 14.40625 -10.4375 Z M 7.265625 -3.125 C 7.691406 -3.125 8.082031 -3.234375 8.4375 -3.453125 C 8.800781 -3.679688 9.097656 -3.988281 9.328125 -4.375 L 9.328125 -6.890625 L 8.453125 -6.890625 C 7.523438 -6.890625 6.835938 -6.71875 6.390625 -6.375 C 5.941406 -6.03125 5.71875 -5.519531 5.71875 -4.84375 C 5.71875 -4.320312 5.851562 -3.90625 6.125 -3.59375 C 6.394531 -3.28125 6.773438 -3.125 7.265625 -3.125 Z M 7.265625 -3.125 "/></g></g></g><g fill="#000000" fill-opacity="1"><g transform="translate(351.453359, 105.12059)"><g><path d="M 7.375 -16.078125 C 8.507812 -16.078125 9.585938 -15.898438 10.609375 -15.546875 C 11.628906 -15.203125 12.5 -14.726562 13.21875 -14.125 L 11.34375 -11.265625 C 10.101562 -12.035156 8.847656 -12.421875 7.578125 -12.421875 C 7.035156 -12.421875 6.632812 -12.335938 6.375 -12.171875 C 6.113281 -12.015625 5.984375 -11.789062 5.984375 -11.5 C 5.984375 -11.238281 6.050781 -11.03125 6.1875 -10.875 C 6.320312 -10.71875 6.609375 -10.546875 7.046875 -10.359375 C 7.484375 -10.179688 8.175781 -9.945312 9.125 -9.65625 C 10.71875 -9.1875 11.894531 -8.578125 12.65625 -7.828125 C 13.414062 -7.078125 13.796875 -6.035156 13.796875 -4.703125 C 13.796875 -3.648438 13.488281 -2.726562 12.875 -1.9375 C 12.257812 -1.15625 11.410156 -0.546875 10.328125 -0.109375 C 9.253906 0.316406 8.039062 0.53125 6.6875 0.53125 C 5.363281 0.53125 4.117188 0.320312 2.953125 -0.09375 C 1.796875 -0.519531 0.820312 -1.101562 0.03125 -1.84375 L 2.515625 -4.609375 C 3.109375 -4.140625 3.75 -3.769531 4.4375 -3.5 C 5.132812 -3.226562 5.832031 -3.09375 6.53125 -3.09375 C 7.15625 -3.09375 7.632812 -3.191406 7.96875 -3.390625 C 8.3125 -3.597656 8.484375 -3.90625 8.484375 -4.3125 C 8.484375 -4.625 8.410156 -4.867188 8.265625 -5.046875 C 8.117188 -5.222656 7.84375 -5.394531 7.4375 -5.5625 C 7.03125 -5.726562 6.332031 -5.957031 5.34375 -6.25 C 2.320312 -7.132812 0.8125 -8.773438 0.8125 -11.171875 C 0.8125 -12.085938 1.070312 -12.921875 1.59375 -13.671875 C 2.125 -14.421875 2.878906 -15.007812 3.859375 -15.4375 C 4.847656 -15.863281 6.019531 -16.078125 7.375 -16.078125 Z M 7.375 -16.078125 "/></g></g></g><g fill="#000000" fill-opacity="1"><g transform="translate(365.682629, 105.12059)"><g/></g></g><g fill="#000000" fill-opacity="1"><g transform="translate(372.330724, 105.12059)"><g><path d="M 6.96875 -20.28125 L 6.96875 -4.203125 L 14.765625 -4.203125 L 14.171875 0 L 1.578125 0 L 1.578125 -20.28125 Z M 6.96875 -20.28125 "/></g></g></g><g fill="#000000" fill-opacity="1"><g transform="translate(387.405582, 105.12059)"><g><path d="M 15.078125 0 L 10.5625 0 L 10.359375 -1.84375 C 9.265625 -0.257812 7.71875 0.53125 5.71875 0.53125 C 4.28125 0.53125 3.195312 0.0976562 2.46875 -0.765625 C 1.738281 -1.640625 1.375 -2.84375 1.375 -4.375 L 1.375 -15.546875 L 6.5625 -15.546875 L 6.5625 -5.046875 C 6.5625 -4.390625 6.660156 -3.925781 6.859375 -3.65625 C 7.066406 -3.394531 7.375 -3.265625 7.78125 -3.265625 C 8.15625 -3.265625 8.519531 -3.394531 8.875 -3.65625 C 9.238281 -3.925781 9.578125 -4.3125 9.890625 -4.8125 L 9.890625 -15.546875 L 15.078125 -15.546875 Z M 15.078125 0 "/></g></g></g><g fill="#000000" fill-opacity="1"><g transform="translate(403.996676, 105.12059)"><g><path d="M 12.984375 -15.546875 L 12.984375 -11.90625 L 6.296875 -3.875 L 13.1875 -3.875 L 12.71875 0 L 0.265625 0 L 0.265625 -3.640625 L 7.03125 -11.703125 L 0.84375 -11.703125 L 0.84375 -15.546875 Z M 12.984375 -15.546875 "/></g></g></g><g clip-path="url(#id4)"><path fill="#86c7ed" d="M 104.972656 98.839844 L 89.019531 98.839844 L 81.027344 112.679688 L 89.019531 126.496094 L 104.972656 126.496094 L 112.964844 112.679688 L 104.972656 98.839844 " fill-opacity="1" fill-rule="nonzero"/></g><g clip-path="url(#id5)"><path fill="#a066cb" d="M 139.851562 103.949219 L 139.855469 103.949219 L 139.316406 103.015625 L 136.914062 98.839844 L 136.902344 98.839844 L 126.15625 80.242188 L 126.15625 80.246094 L 120.929688 71.210938 L 104.972656 71.210938 L 96.980469 85.023438 L 102.359375 94.320312 L 115.527344 117.125 L 120.929688 126.496094 L 136.914062 126.496094 L 144.875 112.679688 L 139.851562 103.949219 " fill-opacity="1" fill-rule="nonzero"/></g><g clip-path="url(#id6)"><path fill="#1836b2" d="M 171.382812 103.277344 L 171.40625 103.265625 L 157.738281 79.558594 L 157.707031 79.578125 L 152.867188 71.210938 L 136.914062 71.210938 L 128.921875 85.023438 L 136.914062 98.839844 L 136.917969 98.839844 L 144.898438 112.640625 L 144.875 112.679688 L 152.867188 126.496094 L 168.820312 126.496094 L 176.8125 112.679688 L 171.382812 103.277344 " fill-opacity="1" fill-rule="nonzero"/></g></svg>